<svg xmlns="http://www.w3.org/2000/svg" version="1.1" xmlns:xlink="http://www.w3.org/1999/xlink" xmlns:svgjs="http://svgjs.dev/svgjs" width="1500" height="1500" viewBox="0 0 1500 1500"><rect width="1500" height="1500" fill="#ffffff"></rect><g transform="matrix(0.6666666666666666,0,0,0.6666666666666666,248.60926628564766,616.4176627056331)"><svg viewBox="0 0 330 88" data-background-color="#ffffff" preserveAspectRatio="xMidYMid meet" height="400" width="1500" xmlns="http://www.w3.org/2000/svg" xmlns:xlink="http://www.w3.org/1999/xlink"><g id="tight-bounds" transform="matrix(1,0,0,1,0.4589421257362858,0.08217130714109544)"><svg viewBox="0 0 329.08211574852743 87.83565738571784" height="87.83565738571784" width="329.08211574852743"><g><svg viewBox="0 0 329.08211574852743 87.83565738571784" height="87.83565738571784" width="329.08211574852743"><g><svg viewBox="0 0 329.08211574852743 87.83565738571784" height="87.83565738571784" width="329.08211574852743"><g><svg viewBox="0 0 329.08211574852743 87.83565738571784" height="87.83565738571784" width="329.08211574852743"><g id="textblocktransform"><svg viewBox="0 0 329.08211574852743 87.83565738571784" height="87.83565738571784" width="329.08211574852743" id="textblock"><g><svg viewBox="0 0 329.08211574852743 58.26538085937499" height="58.26538085937499" width="329.08211574852743"><g><svg><g></g><g></g></svg></g><g><svg><g><svg></svg></g><g></g></svg></g><g id="text-0"><svg viewBox="0 0 329.08211574852743 58.26538085937499" height="58.26538085937499" width="329.08211574852743"><g transform="matrix(1,0,0,1,0,0)"><svg width="257.513232421875" viewBox="4 -36.01 159.15 36.01" height="58.26538085937499" data-palette-color="#556970"><path d="M4-4.81L4-21.19Q4-22.19 4.38-23.07 4.76-23.95 5.41-24.6 6.05-25.24 6.93-25.62 7.81-26 8.79-26L8.79-26 22.19-26 22.19-36.01 27-36.01 27 0 22.19 0 22.19-4.39Q22.12-3.49 21.7-2.69 21.29-1.88 20.64-1.28 20-0.68 19.17-0.34 18.33 0 17.41 0L17.41 0 8.79 0Q7.81 0 6.93-0.38 6.05-0.76 5.41-1.4 4.76-2.05 4.38-2.93 4-3.81 4-4.81L4-4.81ZM8.79-21.19L8.79-4.81 22.19-4.81 22.19-21.19 8.79-21.19ZM35.5-5L35.5-30Q35.5-31.03 35.89-31.95 36.28-32.86 36.96-33.53 37.64-34.2 38.56-34.61 39.48-35.01 40.5-35.01L40.5-35.01 59.49-35.01Q60.52-35.01 61.44-34.61 62.35-34.2 63.03-33.53 63.72-32.86 64.11-31.95 64.5-31.03 64.5-30L64.5-30 64.5-25.49 59.49-25.49 59.49-30 40.5-30 40.5-5 59.49-5 59.49-13.5 50-13.5 50-18.51 64.5-18.51 64.5-5Q64.5-3.98 64.11-3.06 63.72-2.15 63.03-1.46 62.35-0.78 61.44-0.39 60.52 0 59.49 0L59.49 0 40.5 0Q39.48 0 38.56-0.39 37.64-0.78 36.96-1.46 36.28-2.15 35.89-3.06 35.5-3.98 35.5-5L35.5-5ZM73.48-35.01L78.49-35.01 78.49-5 96.48-5 96.48 0 73.48 0 73.48-35.01ZM125.29-18.26L125.29-18.26Q126.38-17.92 127.29-17.29 128.19-16.65 128.83-15.66 129.46-14.67 129.8-13.33 130.14-11.99 130.14-10.25L130.14-10.25 130.14-8.5Q130.14 0 121.65 0L121.65 0 102.48 0 102.48-35.01 120.65-35.01Q129.14-35.01 129.14-26.49L129.14-26.49 129.14-25.85Q129.14-22.9 128.2-21.03 127.26-19.17 125.29-18.26ZM121.5-15.26L107.39-15.26 107.39-4.91 121.5-4.91Q123.48-4.91 124.36-5.83 125.24-6.76 125.24-8.74L125.24-8.74 125.24-11.45Q125.24-13.45 124.36-14.36 123.48-15.26 121.5-15.26L121.5-15.26ZM120.5-30.1L107.39-30.1 107.39-20.14 120.84-20.14Q122.65-20.21 123.44-21.13 124.24-22.05 124.24-23.95L124.24-23.95 124.24-26.25Q124.24-28.25 123.36-29.17 122.48-30.1 120.5-30.1L120.5-30.1ZM137.64 0L137.64-35.01 163.15-35.01 163.15-30 142.64-30 142.64-20 160.15-20 160.15-14.99 142.64-14.99 142.64 0 137.64 0Z" opacity="1" transform="matrix(1,0,0,1,0,0)" fill="#556970" class="wordmark-text-0" data-fill-palette-color="primary"></path></svg></g><g><svg xmlns="http://www.w3.org/2000/svg" xmlns:xlink="http://www.w3.org/1999/xlink" version="1.1" x="271.2693359375" y="0" viewBox="6.759812374333089 6.421299197633704 86.47967417743321 87.1567008023663" enable-background="new 0 0 100 100" xml:space="preserve" height="58.26538085937499" width="57.812779811027454" class="icon-dxe-0" data-fill-palette-color="accent" id="dxe-0"><path d="M91.498 65.179C90.315 63.588 88.686 62.582 86.823 62.245 87.027 59.724 85.787 57.246 83.325 55.635 80.759 53.955 77.18 53.579 74.301 55.486 73.412 54.127 72.216 52.984 70.734 52.102 66.702 49.697 61.066 49.779 57.028 52.297 54.268 54.019 52.545 56.665 52.081 59.784 48.989 59.23 46.143 60.047 44.021 62.163 41.029 65.147 39.984 70.323 41.588 74.204 42.827 77.201 45.414 78.92 48.684 78.92H84.418C88.027 78.92 90.912 77.298 92.333 74.47 93.799 71.554 93.463 67.82 91.498 65.179M67.425 79.196A0.514 0.514 0 0 0 66.65 79.196L63.007 83.73A0.496 0.496 0 0 0 63.394 84.538H65.475V90.595H19.571V76.399C24.806 75.669 28.852 71.175 28.852 65.744 28.852 60.004 24.335 55.312 18.67 55.003L22.111 50.72A0.496 0.496 0 0 0 21.724 49.912H19.572V34.989H50.34C53.949 34.989 56.834 33.367 58.255 30.539 59.72 27.623 59.384 23.89 57.419 21.248 56.236 19.657 54.607 18.651 52.744 18.314 52.948 15.793 51.708 13.315 49.246 11.704 46.679 10.024 43.101 9.648 40.222 11.555 39.333 10.196 38.137 9.053 36.655 8.171 32.623 5.767 26.987 5.848 22.949 8.366 20.189 10.088 18.466 12.734 18.002 15.853 14.91 15.299 12.064 16.116 9.942 18.232 6.95 21.216 5.905 26.392 7.509 30.273 8.748 33.27 11.335 34.989 14.605 34.989H16.588V49.912H14.437A0.497 0.497 0 0 0 14.05 50.72L17.496 55.01A10.67 10.67 0 0 0 9.203 59.677L8.193 59.087A0.496 0.496 0 0 0 7.446 59.518L7.462 64.779A0.47 0.47 0 0 0 7.709 65.206 0.55 0.55 0 0 0 8.202 65.211L12.794 62.644A0.498 0.498 0 0 0 12.801 61.781L11.782 61.185A7.73 7.73 0 0 1 18.08 57.954C22.375 57.954 25.87 61.449 25.87 65.743S22.375 73.532 18.08 73.532A7.745 7.745 0 0 1 10.718 68.3C10.627 68.036 10.319 67.575 9.706 67.664 9.365 67.714 8.69 67.862 8.364 67.971 7.584 68.232 7.73 68.75 7.823 69.042A10.69 10.69 0 0 0 16.589 76.404V92.087C16.589 92.91 17.257 93.578 18.08 93.578H66.967C67.79 93.578 68.458 92.91 68.458 92.087V84.539H70.681A0.497 0.497 0 0 0 71.068 83.731zM18.577 61.332V65.247H23.709A0.496 0.496 0 1 1 23.709 66.241H18.544C17.865 66.241 17.583 66.165 17.583 65.419V61.332A0.496 0.496 0 1 1 18.577 61.332" fill="#aba944" data-fill-palette-color="accent"></path></svg></g></svg></g></svg></g><g transform="matrix(1,0,0,1,0,72.0204389111328)"><svg viewBox="0 0 329.08211574852743 15.815218474585034" height="15.815218474585034" width="329.08211574852743"><g transform="matrix(1,0,0,1,0,0)"><svg width="329.08211574852743" viewBox="3 -35.5 938.3 45.51" height="15.815218474585034" data-palette-color="#556970"><g class="slogan-text-1" data-fill-palette-color="secondary" id="text-1"><path d="M19.7 0L18.7 0 17.04-2.54Q16.02-1.15 14.48-0.33 12.94 0.49 11.11 0.49L11.11 0.49 10.35 0.49Q8.84 0.49 7.5-0.09 6.15-0.66 5.15-1.66 4.15-2.66 3.58-4 3-5.35 3-6.86L3-6.86 3-18.14Q3-19.65 3.58-21 4.15-22.34 5.15-23.34 6.15-24.34 7.5-24.91 8.84-25.49 10.35-25.49L10.35-25.49 11.11-25.49Q12.79-25.49 14.23-24.8 15.67-24.12 16.7-22.9L16.7-22.9 16.7-35.01 19.7-35.01 19.7 0ZM16.7-6.69L16.7-18.31Q16.7-19.21 16.36-20.01 16.02-20.8 15.43-21.39 14.84-21.97 14.05-22.31 13.26-22.66 12.35-22.66L12.35-22.66 10.35-22.66Q9.45-22.66 8.65-22.31 7.86-21.97 7.28-21.39 6.69-20.8 6.35-20.01 6.01-19.21 6.01-18.31L6.01-18.31 6.01-6.69Q6.01-5.79 6.35-4.99 6.69-4.2 7.28-3.61 7.86-3.03 8.65-2.69 9.45-2.34 10.35-2.34L10.35-2.34 12.35-2.34Q13.26-2.34 14.05-2.69 14.84-3.03 15.43-3.61 16.02-4.2 16.36-4.99 16.7-5.79 16.7-6.69L16.7-6.69ZM42.4-6.86L42.4-6.86Q42.4-5.35 41.83-4 41.26-2.66 40.26-1.66 39.26-0.66 37.91-0.09 36.57 0.49 35.06 0.49L35.06 0.49 33.05 0.49Q31.54 0.49 30.2-0.09 28.85-0.66 27.85-1.66 26.85-2.66 26.28-4 25.71-5.35 25.71-6.86L25.71-6.86 25.71-18.14Q25.71-19.65 26.28-21 26.85-22.34 27.85-23.34 28.85-24.34 30.2-24.91 31.54-25.49 33.05-25.49L33.05-25.49 35.06-25.49Q36.57-25.49 37.91-24.91 39.26-24.34 40.26-23.34 41.26-22.34 41.83-21 42.4-19.65 42.4-18.14L42.4-18.14 42.4-12.26 28.71-12.26 28.71-6.69Q28.71-5.79 29.05-4.99 29.39-4.2 29.98-3.61 30.56-3.03 31.36-2.69 32.15-2.34 33.05-2.34L33.05-2.34 35.06-2.34Q35.96-2.34 36.75-2.69 37.55-3.03 38.13-3.61 38.72-4.2 39.06-4.99 39.4-5.79 39.4-6.69L39.4-6.69 39.4-8.35 42.4-7.86 42.4-6.86ZM39.4-14.6L39.4-18.31Q39.4-19.21 39.06-20.01 38.72-20.8 38.13-21.39 37.55-21.97 36.75-22.31 35.96-22.66 35.06-22.66L35.06-22.66 33.05-22.66Q32.15-22.66 31.36-22.31 30.56-21.97 29.98-21.39 29.39-20.8 29.05-20.01 28.71-19.21 28.71-18.31L28.71-18.31 28.71-14.6 39.4-14.6ZM65.11-6.86L65.11-6.86Q65.11-5.35 64.53-4 63.96-2.66 62.96-1.66 61.96-0.66 60.62-0.09 59.27 0.49 57.76 0.49L57.76 0.49 55.76 0.49Q54.24 0.49 52.9-0.09 51.56-0.66 50.56-1.66 49.56-2.66 48.98-4 48.41-5.35 48.41-6.86L48.41-6.86 48.41-18.14Q48.41-19.65 48.98-21 49.56-22.34 50.56-23.34 51.56-24.34 52.9-24.91 54.24-25.49 55.76-25.49L55.76-25.49 57.76-25.49Q59.27-25.49 60.62-24.91 61.96-24.34 62.96-23.34 63.96-22.34 64.53-21 65.11-19.65 65.11-18.14L65.11-18.14 65.11-17.14 62.1-16.65 62.1-18.31Q62.1-19.21 61.76-20.01 61.42-20.8 60.83-21.39 60.25-21.97 59.46-22.31 58.66-22.66 57.76-22.66L57.76-22.66 55.76-22.66Q54.85-22.66 54.06-22.31 53.27-21.97 52.68-21.39 52.09-20.8 51.75-20.01 51.41-19.21 51.41-18.31L51.41-18.31 51.41-6.69Q51.41-5.79 51.75-4.99 52.09-4.2 52.68-3.61 53.27-3.03 54.06-2.69 54.85-2.34 55.76-2.34L55.76-2.34 57.76-2.34Q58.66-2.34 59.46-2.69 60.25-3.03 60.83-3.61 61.42-4.2 61.76-4.99 62.1-5.79 62.1-6.69L62.1-6.69 62.1-8.35 65.11-7.86 65.11-6.86ZM75.11 0L72.11 0 72.11-35.01 75.11-35.01 75.11 0ZM98.82 0L97.82 0 96.16-2.49Q95.13-1.15 93.59-0.33 92.06 0.49 90.22 0.49L90.22 0.49 89.47 0.49Q87.95 0.49 86.61-0.09 85.27-0.66 84.27-1.66 83.27-2.66 82.69-4 82.12-5.35 82.12-6.86L82.12-6.86 82.12-7.1Q82.12-8.62 82.69-9.96 83.27-11.3 84.27-12.3 85.27-13.31 86.61-13.88 87.95-14.45 89.47-14.45L89.47-14.45 95.82-14.45 95.82-18.31Q95.82-19.21 95.47-20.01 95.13-20.8 94.55-21.39 93.96-21.97 93.17-22.31 92.37-22.66 91.47-22.66L91.47-22.66 89.71-22.66Q88.81-22.66 88.01-22.31 87.22-21.97 86.64-21.39 86.05-20.8 85.71-20.01 85.37-19.21 85.37-18.31L85.37-18.31 85.37-17.41 82.36-17.9 82.36-18.14Q82.36-19.65 82.94-21 83.51-22.34 84.51-23.34 85.51-24.34 86.86-24.91 88.2-25.49 89.71-25.49L89.71-25.49 91.47-25.49Q92.98-25.49 94.33-24.91 95.67-24.34 96.67-23.34 97.67-22.34 98.24-21 98.82-19.65 98.82-18.14L98.82-18.14 98.82 0ZM95.82-6.69L95.82-12.11 89.47-12.11Q88.56-12.11 87.77-11.77 86.98-11.43 86.39-10.83 85.81-10.23 85.46-9.44 85.12-8.64 85.12-7.74L85.12-7.74 85.12-6.69Q85.12-5.79 85.46-4.99 85.81-4.2 86.39-3.61 86.98-3.03 87.77-2.69 88.56-2.34 89.47-2.34L89.47-2.34 91.47-2.34Q92.37-2.34 93.17-2.69 93.96-3.03 94.55-3.61 95.13-4.2 95.47-4.99 95.82-5.79 95.82-6.69L95.82-6.69ZM115.17-22.14L112.17-22.14Q111.27-22.14 110.47-21.8 109.68-21.46 109.09-20.87 108.51-20.29 108.17-19.49 107.82-18.7 107.82-17.8L107.82-17.8 107.82 0 104.82 0 104.82-25 105.82-25 107.46-22.46Q108.48-23.85 110.03-24.67 111.58-25.49 113.42-25.49L113.42-25.49 115.17-25.49 115.17-22.14ZM135.87 0L134.87 0 133.21-2.49Q132.19-1.15 130.65-0.33 129.11 0.49 127.28 0.49L127.28 0.49 126.52 0.49Q125.01 0.49 123.67-0.09 122.32-0.66 121.32-1.66 120.32-2.66 119.75-4 119.17-5.35 119.17-6.86L119.17-6.86 119.17-7.1Q119.17-8.62 119.75-9.96 120.32-11.3 121.32-12.3 122.32-13.31 123.67-13.88 125.01-14.45 126.52-14.45L126.52-14.45 132.87-14.45 132.87-18.31Q132.87-19.21 132.53-20.01 132.19-20.8 131.6-21.39 131.02-21.97 130.22-22.31 129.43-22.66 128.53-22.66L128.53-22.66 126.77-22.66Q125.86-22.66 125.07-22.31 124.28-21.97 123.69-21.39 123.11-20.8 122.76-20.01 122.42-19.21 122.42-18.31L122.42-18.31 122.42-17.41 119.42-17.9 119.42-18.14Q119.42-19.65 119.99-21 120.57-22.34 121.57-23.34 122.57-24.34 123.91-24.91 125.25-25.49 126.77-25.49L126.77-25.49 128.53-25.49Q130.04-25.49 131.38-24.91 132.72-24.34 133.73-23.34 134.73-22.34 135.3-21 135.87-19.65 135.87-18.14L135.87-18.14 135.87 0ZM132.87-6.69L132.87-12.11 126.52-12.11Q125.62-12.11 124.83-11.77 124.03-11.43 123.45-10.83 122.86-10.23 122.52-9.44 122.18-8.64 122.18-7.74L122.18-7.74 122.18-6.69Q122.18-5.79 122.52-4.99 122.86-4.2 123.45-3.61 124.03-3.03 124.83-2.69 125.62-2.34 126.52-2.34L126.52-2.34 128.53-2.34Q129.43-2.34 130.22-2.69 131.02-3.03 131.6-3.61 132.19-4.2 132.53-4.99 132.87-5.79 132.87-6.69L132.87-6.69ZM153.72 0L150.98 0Q149.62 0 148.41-0.51 147.2-1.03 146.31-1.93 145.42-2.83 144.89-4.03 144.37-5.22 144.37-6.59L144.37-6.59 144.37-22.14 139.88-22.14 139.88-25 144.37-25 144.37-31.01 147.37-31.49 147.37-25 153.72-25 153.72-22.14 147.37-22.14 147.37-6.45Q147.37-5.69 147.65-5.04 147.93-4.39 148.42-3.91 148.91-3.42 149.57-3.14 150.23-2.86 150.98-2.86L150.98-2.86 153.72-2.86 153.72 0ZM163.48-31.01L159.99-31.01 159.99-35.01 163.48-35.01 163.48-31.01ZM163.24 0L160.23 0 160.23-25 163.24-25 163.24 0ZM186.94-25L178.08 0 176.59 0 167.73-25 170.73-25 177.25-6.05 177.35-4.76 177.44-6.05 183.94-25 186.94-25ZM207.13-6.86L207.13-6.86Q207.13-5.35 206.55-4 205.98-2.66 204.98-1.66 203.98-0.66 202.64-0.09 201.29 0.49 199.78 0.49L199.78 0.49 197.78 0.49Q196.26 0.49 194.92-0.09 193.58-0.66 192.58-1.66 191.58-2.66 191-4 190.43-5.35 190.43-6.86L190.43-6.86 190.43-18.14Q190.43-19.65 191-21 191.58-22.34 192.58-23.34 193.58-24.34 194.92-24.91 196.26-25.49 197.78-25.49L197.78-25.49 199.78-25.49Q201.29-25.49 202.64-24.91 203.98-24.34 204.98-23.34 205.98-22.34 206.55-21 207.13-19.65 207.13-18.14L207.13-18.14 207.13-12.26 193.43-12.26 193.43-6.69Q193.43-5.79 193.77-4.99 194.12-4.2 194.7-3.61 195.29-3.03 196.08-2.69 196.87-2.34 197.78-2.34L197.78-2.34 199.78-2.34Q200.68-2.34 201.48-2.69 202.27-3.03 202.86-3.61 203.44-4.2 203.78-4.99 204.13-5.79 204.13-6.69L204.13-6.69 204.13-8.35 207.13-7.86 207.13-6.86ZM204.13-14.6L204.13-18.31Q204.13-19.21 203.78-20.01 203.44-20.8 202.86-21.39 202.27-21.97 201.48-22.31 200.68-22.66 199.78-22.66L199.78-22.66 197.78-22.66Q196.87-22.66 196.08-22.31 195.29-21.97 194.7-21.39 194.12-20.8 193.77-20.01 193.43-19.21 193.43-18.31L193.43-18.31 193.43-14.6 204.13-14.6Z" fill="#556970" data-fill-palette-color="primary"></path><path d="M241.82-18.41L241.82 0 240.82 0 238.99-2.81Q237.84-1.29 236.2-0.4 234.57 0.49 232.57 0.49L232.57 0.49 230.74 0.49Q228.95 0.49 227.38-0.18 225.8-0.85 224.63-2.03 223.46-3.2 222.79-4.76 222.12-6.32 222.12-8.11L222.12-8.11 222.12-26.9Q222.12-28.69 222.79-30.25 223.46-31.81 224.63-32.98 225.8-34.16 227.38-34.83 228.95-35.5 230.74-35.5L230.74-35.5 233.23-35.5Q235.01-35.5 236.57-34.83 238.13-34.16 239.31-32.98 240.48-31.81 241.15-30.25 241.82-28.69 241.82-26.9L241.82-26.9 241.82-25.49 238.67-25 238.67-26.9Q238.67-28.08 238.23-29.09 237.79-30.1 237.03-30.86 236.28-31.62 235.26-32.06 234.25-32.5 233.08-32.5L233.08-32.5 230.88-32.5Q229.71-32.5 228.7-32.06 227.68-31.62 226.92-30.86 226.15-30.1 225.71-29.09 225.27-28.08 225.27-26.9L225.27-26.9 225.27-8.11Q225.27-6.93 225.71-5.92 226.15-4.91 226.92-4.14 227.68-3.37 228.7-2.93 229.71-2.49 230.88-2.49L230.88-2.49 233.08-2.49Q234.25-2.49 235.26-2.93 236.28-3.37 237.03-4.14 237.79-4.91 238.23-5.92 238.67-6.93 238.67-8.11L238.67-8.11 238.67-15.41 233.08-15.41 233.08-18.41 241.82-18.41ZM265.04 0L264.03 0 262.37-2.54Q261.35-1.15 259.81-0.33 258.27 0.49 256.44 0.49L256.44 0.49 255.68 0.49Q254.17 0.49 252.83-0.09 251.49-0.66 250.48-1.66 249.48-2.66 248.91-4 248.34-5.35 248.34-6.86L248.34-6.86 248.34-25 251.34-25 251.34-6.69Q251.34-5.79 251.68-4.99 252.02-4.2 252.61-3.61 253.19-3.03 253.99-2.69 254.78-2.34 255.68-2.34L255.68-2.34 257.69-2.34Q258.59-2.34 259.38-2.69 260.18-3.03 260.76-3.61 261.35-4.2 261.69-4.99 262.03-5.79 262.03-6.69L262.03-6.69 262.03-25 265.04-25 265.04 0ZM287.74 0L286.74 0 285.08-2.49Q284.05-1.15 282.51-0.33 280.98 0.49 279.14 0.49L279.14 0.49 278.39 0.49Q276.87 0.49 275.53-0.09 274.19-0.66 273.19-1.66 272.19-2.66 271.61-4 271.04-5.35 271.04-6.86L271.04-6.86 271.04-7.1Q271.04-8.62 271.61-9.96 272.19-11.3 273.19-12.3 274.19-13.31 275.53-13.88 276.87-14.45 278.39-14.45L278.39-14.45 284.73-14.45 284.73-18.31Q284.73-19.21 284.39-20.01 284.05-20.8 283.47-21.39 282.88-21.97 282.09-22.31 281.29-22.66 280.39-22.66L280.39-22.66 278.63-22.66Q277.73-22.66 276.93-22.31 276.14-21.97 275.56-21.39 274.97-20.8 274.63-20.01 274.29-19.21 274.29-18.31L274.29-18.31 274.29-17.41 271.28-17.9 271.28-18.14Q271.28-19.65 271.86-21 272.43-22.34 273.43-23.34 274.43-24.34 275.77-24.91 277.12-25.49 278.63-25.49L278.63-25.49 280.39-25.49Q281.9-25.49 283.25-24.91 284.59-24.34 285.59-23.34 286.59-22.34 287.16-21 287.74-19.65 287.74-18.14L287.74-18.14 287.74 0ZM284.73-6.69L284.73-12.11 278.39-12.11Q277.48-12.11 276.69-11.77 275.9-11.43 275.31-10.83 274.73-10.23 274.38-9.44 274.04-8.64 274.04-7.74L274.04-7.74 274.04-6.69Q274.04-5.79 274.38-4.99 274.73-4.2 275.31-3.61 275.9-3.03 276.69-2.69 277.48-2.34 278.39-2.34L278.39-2.34 280.39-2.34Q281.29-2.34 282.09-2.69 282.88-3.03 283.47-3.61 284.05-4.2 284.39-4.99 284.73-5.79 284.73-6.69L284.73-6.69ZM304.09-22.14L301.09-22.14Q300.19-22.14 299.39-21.8 298.6-21.46 298.01-20.87 297.43-20.29 297.09-19.49 296.74-18.7 296.74-17.8L296.74-17.8 296.74 0 293.74 0 293.74-25 294.74-25 296.38-22.46Q297.4-23.85 298.95-24.67 300.5-25.49 302.33-25.49L302.33-25.49 304.09-25.49 304.09-22.14ZM324.79 0L323.79 0 322.13-2.49Q321.11-1.15 319.57-0.33 318.03 0.49 316.2 0.49L316.2 0.49 315.44 0.49Q313.93 0.49 312.59-0.09 311.24-0.66 310.24-1.66 309.24-2.66 308.67-4 308.09-5.35 308.09-6.86L308.09-6.86 308.09-7.1Q308.09-8.62 308.67-9.96 309.24-11.3 310.24-12.3 311.24-13.31 312.59-13.88 313.93-14.45 315.44-14.45L315.44-14.45 321.79-14.45 321.79-18.31Q321.79-19.21 321.45-20.01 321.11-20.8 320.52-21.39 319.93-21.97 319.14-22.31 318.35-22.66 317.44-22.66L317.44-22.66 315.69-22.66Q314.78-22.66 313.99-22.31 313.2-21.97 312.61-21.39 312.02-20.8 311.68-20.01 311.34-19.21 311.34-18.31L311.34-18.31 311.34-17.41 308.34-17.9 308.34-18.14Q308.34-19.65 308.91-21 309.49-22.34 310.49-23.34 311.49-24.34 312.83-24.91 314.17-25.49 315.69-25.49L315.69-25.49 317.44-25.49Q318.96-25.49 320.3-24.91 321.64-24.34 322.64-23.34 323.65-22.34 324.22-21 324.79-19.65 324.79-18.14L324.79-18.14 324.79 0ZM321.79-6.69L321.79-12.11 315.44-12.11Q314.54-12.11 313.75-11.77 312.95-11.43 312.37-10.83 311.78-10.23 311.44-9.44 311.1-8.64 311.1-7.74L311.1-7.74 311.1-6.69Q311.1-5.79 311.44-4.99 311.78-4.2 312.37-3.61 312.95-3.03 313.75-2.69 314.54-2.34 315.44-2.34L315.44-2.34 317.44-2.34Q318.35-2.34 319.14-2.69 319.93-3.03 320.52-3.61 321.11-4.2 321.45-4.99 321.79-5.79 321.79-6.69L321.79-6.69ZM347.5 0L344.49 0 344.49-18.31Q344.49-19.21 344.15-20.01 343.81-20.8 343.22-21.39 342.64-21.97 341.84-22.31 341.05-22.66 340.15-22.66L340.15-22.66 338.15-22.66Q337.24-22.66 336.45-22.31 335.66-21.97 335.07-21.39 334.48-20.8 334.14-20.01 333.8-19.21 333.8-18.31L333.8-18.31 333.8 0 330.8 0 330.8-25 331.8-25 333.43-22.46Q334.46-23.85 336.01-24.67 337.56-25.49 339.39-25.49L339.39-25.49 340.15-25.49Q341.66-25.49 343-24.91 344.35-24.34 345.35-23.34 346.35-22.34 346.92-21 347.5-19.65 347.5-18.14L347.5-18.14 347.5 0ZM365.34 0L362.61 0Q361.24 0 360.03-0.51 358.82-1.03 357.93-1.93 357.04-2.83 356.51-4.03 355.99-5.22 355.99-6.59L355.99-6.59 355.99-22.14 351.5-22.14 351.5-25 355.99-25 355.99-31.01 358.99-31.49 358.99-25 365.34-25 365.34-22.14 358.99-22.14 358.99-6.45Q358.99-5.69 359.27-5.04 359.55-4.39 360.04-3.91 360.53-3.42 361.19-3.14 361.85-2.86 362.61-2.86L362.61-2.86 365.34-2.86 365.34 0ZM387.55-6.86L387.55-6.86Q387.55-5.35 386.98-4 386.41-2.66 385.41-1.66 384.4-0.66 383.06-0.09 381.72 0.49 380.21 0.49L380.21 0.49 378.2 0.49Q376.69 0.49 375.35-0.09 374-0.66 373-1.66 372-2.66 371.43-4 370.86-5.35 370.86-6.86L370.86-6.86 370.86-18.14Q370.86-19.65 371.43-21 372-22.34 373-23.34 374-24.34 375.35-24.91 376.69-25.49 378.2-25.49L378.2-25.49 380.21-25.49Q381.72-25.49 383.06-24.91 384.4-24.34 385.41-23.34 386.41-22.34 386.98-21 387.55-19.65 387.55-18.14L387.55-18.14 387.55-12.26 373.86-12.26 373.86-6.69Q373.86-5.79 374.2-4.99 374.54-4.2 375.13-3.61 375.71-3.03 376.51-2.69 377.3-2.34 378.2-2.34L378.2-2.34 380.21-2.34Q381.11-2.34 381.9-2.69 382.7-3.03 383.28-3.61 383.87-4.2 384.21-4.99 384.55-5.79 384.55-6.69L384.55-6.69 384.55-8.35 387.55-7.86 387.55-6.86ZM384.55-14.6L384.55-18.31Q384.55-19.21 384.21-20.01 383.87-20.8 383.28-21.39 382.7-21.97 381.9-22.31 381.11-22.66 380.21-22.66L380.21-22.66 378.2-22.66Q377.3-22.66 376.51-22.31 375.71-21.97 375.13-21.39 374.54-20.8 374.2-20.01 373.86-19.21 373.86-18.31L373.86-18.31 373.86-14.6 384.55-14.6ZM410.26-6.86L410.26-6.86Q410.26-5.35 409.68-4 409.11-2.66 408.11-1.66 407.11-0.66 405.76-0.09 404.42 0.49 402.91 0.49L402.91 0.49 400.91 0.49Q399.39 0.49 398.05-0.09 396.71-0.66 395.71-1.66 394.71-2.66 394.13-4 393.56-5.35 393.56-6.86L393.56-6.86 393.56-18.14Q393.56-19.65 394.13-21 394.71-22.34 395.71-23.34 396.71-24.34 398.05-24.91 399.39-25.49 400.91-25.49L400.91-25.49 402.91-25.49Q404.42-25.49 405.76-24.91 407.11-24.34 408.11-23.34 409.11-22.34 409.68-21 410.26-19.65 410.26-18.14L410.26-18.14 410.26-12.26 396.56-12.26 396.56-6.69Q396.56-5.79 396.9-4.99 397.24-4.2 397.83-3.61 398.42-3.03 399.21-2.69 400-2.34 400.91-2.34L400.91-2.34 402.91-2.34Q403.81-2.34 404.61-2.69 405.4-3.03 405.98-3.61 406.57-4.2 406.91-4.99 407.25-5.79 407.25-6.69L407.25-6.69 407.25-8.35 410.26-7.86 410.26-6.86ZM407.25-14.6L407.25-18.31Q407.25-19.21 406.91-20.01 406.57-20.8 405.98-21.39 405.4-21.97 404.61-22.31 403.81-22.66 402.91-22.66L402.91-22.66 400.91-22.66Q400-22.66 399.21-22.31 398.42-21.97 397.83-21.39 397.24-20.8 396.9-20.01 396.56-19.21 396.56-18.31L396.56-18.31 396.56-14.6 407.25-14.6ZM432.96 0L431.96 0 430.3-2.54Q429.27-1.15 427.73-0.33 426.2 0.49 424.37 0.49L424.37 0.49 423.61 0.49Q422.1 0.49 420.75-0.09 419.41-0.66 418.41-1.66 417.41-2.66 416.83-4 416.26-5.35 416.26-6.86L416.26-6.86 416.26-18.14Q416.26-19.65 416.83-21 417.41-22.34 418.41-23.34 419.41-24.34 420.75-24.91 422.1-25.49 423.61-25.49L423.61-25.49 424.37-25.49Q426.05-25.49 427.49-24.8 428.93-24.12 429.96-22.9L429.96-22.9 429.96-35.01 432.96-35.01 432.96 0ZM429.96-6.69L429.96-18.31Q429.96-19.21 429.61-20.01 429.27-20.8 428.69-21.39 428.1-21.97 427.31-22.31 426.51-22.66 425.61-22.66L425.61-22.66 423.61-22.66Q422.71-22.66 421.91-22.31 421.12-21.97 420.53-21.39 419.95-20.8 419.61-20.01 419.26-19.21 419.26-18.31L419.26-18.31 419.26-6.69Q419.26-5.79 419.61-4.99 419.95-4.2 420.53-3.61 421.12-3.03 421.91-2.69 422.71-2.34 423.61-2.34L423.61-2.34 425.61-2.34Q426.51-2.34 427.31-2.69 428.1-3.03 428.69-3.61 429.27-4.2 429.61-4.99 429.96-5.79 429.96-6.69L429.96-6.69Z" fill="#aba944" data-fill-palette-color="accent"></path><path d="M464.5 0L447.95 0 447.95-35.01 451.1-35.01 451.1-3 464.5-3 464.5 0ZM485.2 0L484.2 0 482.54-2.49Q481.51-1.15 479.98-0.33 478.44 0.49 476.61 0.49L476.61 0.49 475.85 0.49Q474.34 0.49 472.99-0.09 471.65-0.66 470.65-1.66 469.65-2.66 469.08-4 468.5-5.35 468.5-6.86L468.5-6.86 468.5-7.1Q468.5-8.62 469.08-9.96 469.65-11.3 470.65-12.3 471.65-13.31 472.99-13.88 474.34-14.45 475.85-14.45L475.85-14.45 482.2-14.45 482.2-18.31Q482.2-19.21 481.86-20.01 481.51-20.8 480.93-21.39 480.34-21.97 479.55-22.31 478.76-22.66 477.85-22.66L477.85-22.66 476.09-22.66Q475.19-22.66 474.4-22.31 473.6-21.97 473.02-21.39 472.43-20.8 472.09-20.01 471.75-19.21 471.75-18.31L471.75-18.31 471.75-17.41 468.75-17.9 468.75-18.14Q468.75-19.65 469.32-21 469.89-22.34 470.89-23.34 471.9-24.34 473.24-24.91 474.58-25.49 476.09-25.49L476.09-25.49 477.85-25.49Q479.37-25.49 480.71-24.91 482.05-24.34 483.05-23.34 484.05-22.34 484.63-21 485.2-19.65 485.2-18.14L485.2-18.14 485.2 0ZM482.2-6.69L482.2-12.11 475.85-12.11Q474.95-12.11 474.15-11.77 473.36-11.43 472.77-10.83 472.19-10.23 471.85-9.44 471.5-8.64 471.5-7.74L471.5-7.74 471.5-6.69Q471.5-5.79 471.85-4.99 472.19-4.2 472.77-3.61 473.36-3.03 474.15-2.69 474.95-2.34 475.85-2.34L475.85-2.34 477.85-2.34Q478.76-2.34 479.55-2.69 480.34-3.03 480.93-3.61 481.51-4.2 481.86-4.99 482.2-5.79 482.2-6.69L482.2-6.69ZM503.05 0L500.31 0Q498.94 0 497.74-0.51 496.53-1.03 495.64-1.93 494.74-2.83 494.22-4.03 493.69-5.22 493.69-6.59L493.69-6.59 493.69-22.14 489.2-22.14 489.2-25 493.69-25 493.69-31.01 496.7-31.49 496.7-25 503.05-25 503.05-22.14 496.7-22.14 496.7-6.45Q496.7-5.69 496.98-5.04 497.26-4.39 497.75-3.91 498.24-3.42 498.89-3.14 499.55-2.86 500.31-2.86L500.31-2.86 503.05-2.86 503.05 0ZM525.26-6.86L525.26-6.86Q525.26-5.35 524.69-4 524.11-2.66 523.11-1.66 522.11-0.66 520.77-0.09 519.42 0.49 517.91 0.49L517.91 0.49 515.91 0.49Q514.4 0.49 513.05-0.09 511.71-0.66 510.71-1.66 509.71-2.66 509.13-4 508.56-5.35 508.56-6.86L508.56-6.86 508.56-18.14Q508.56-19.65 509.13-21 509.71-22.34 510.71-23.34 511.71-24.34 513.05-24.91 514.4-25.49 515.91-25.49L515.91-25.49 517.91-25.49Q519.42-25.49 520.77-24.91 522.11-24.34 523.11-23.34 524.11-22.34 524.69-21 525.26-19.65 525.26-18.14L525.26-18.14 525.26-12.26 511.56-12.26 511.56-6.69Q511.56-5.79 511.91-4.99 512.25-4.2 512.83-3.61 513.42-3.03 514.21-2.69 515.01-2.34 515.91-2.34L515.91-2.34 517.91-2.34Q518.81-2.34 519.61-2.69 520.4-3.03 520.99-3.61 521.57-4.2 521.91-4.99 522.26-5.79 522.26-6.69L522.26-6.69 522.26-8.35 525.26-7.86 525.26-6.86ZM522.26-14.6L522.26-18.31Q522.26-19.21 521.91-20.01 521.57-20.8 520.99-21.39 520.4-21.97 519.61-22.31 518.81-22.66 517.91-22.66L517.91-22.66 515.91-22.66Q515.01-22.66 514.21-22.31 513.42-21.97 512.83-21.39 512.25-20.8 511.91-20.01 511.56-19.21 511.56-18.31L511.56-18.31 511.56-14.6 522.26-14.6ZM547.96 0L544.96 0 544.96-18.31Q544.96-19.21 544.62-20.01 544.28-20.8 543.69-21.39 543.1-21.97 542.31-22.31 541.52-22.66 540.61-22.66L540.61-22.66 538.61-22.66Q537.71-22.66 536.91-22.31 536.12-21.97 535.54-21.39 534.95-20.8 534.61-20.01 534.27-19.21 534.27-18.31L534.27-18.31 534.27 0 531.26 0 531.26-25 532.26-25 533.9-22.46Q534.93-23.85 536.48-24.67 538.03-25.49 539.86-25.49L539.86-25.49 540.61-25.49Q542.13-25.49 543.47-24.91 544.81-24.34 545.81-23.34 546.81-22.34 547.39-21 547.96-19.65 547.96-18.14L547.96-18.14 547.96 0ZM570.66-6.86L570.66-6.86Q570.66-5.35 570.09-4 569.52-2.66 568.52-1.66 567.52-0.66 566.17-0.09 564.83 0.49 563.32 0.49L563.32 0.49 561.31 0.49Q559.8 0.49 558.46-0.09 557.11-0.66 556.11-1.66 555.11-2.66 554.54-4 553.97-5.35 553.97-6.86L553.97-6.86 553.97-18.14Q553.97-19.65 554.54-21 555.11-22.34 556.11-23.34 557.11-24.34 558.46-24.91 559.8-25.49 561.31-25.49L561.31-25.49 563.32-25.49Q564.83-25.49 566.17-24.91 567.52-24.34 568.52-23.34 569.52-22.34 570.09-21 570.66-19.65 570.66-18.14L570.66-18.14 570.66-17.14 567.66-16.65 567.66-18.31Q567.66-19.21 567.32-20.01 566.98-20.8 566.39-21.39 565.81-21.97 565.01-22.31 564.22-22.66 563.32-22.66L563.32-22.66 561.31-22.66Q560.41-22.66 559.62-22.31 558.82-21.97 558.24-21.39 557.65-20.8 557.31-20.01 556.97-19.21 556.97-18.31L556.97-18.31 556.97-6.69Q556.97-5.79 557.31-4.99 557.65-4.2 558.24-3.61 558.82-3.03 559.62-2.69 560.41-2.34 561.31-2.34L561.31-2.34 563.32-2.34Q564.22-2.34 565.01-2.69 565.81-3.03 566.39-3.61 566.98-4.2 567.32-4.99 567.66-5.79 567.66-6.69L567.66-6.69 567.66-8.35 570.66-7.86 570.66-6.86ZM593.37-25L580.72 10.01 577.82 10.01 582.26-2.15 574.15-25 577.16-25 583.67-6.05 583.77-4.76 583.87-6.05 590.36-25 593.37-25ZM605.21-15.31L595.86-15.31 595.86-18.14 605.21-18.14 605.21-15.31ZM631.42-8.59L631.42-8.59Q631.42-6.81 630.75-5.25 630.08-3.69 628.91-2.51 627.74-1.34 626.16-0.67 624.59 0 622.81 0L622.81 0 611.72 0 611.72-35.01 622.81-35.01Q624.59-35.01 626.16-34.34 627.74-33.67 628.91-32.5 630.08-31.32 630.75-29.75 631.42-28.17 631.42-26.39L631.42-26.39 631.42-26.05Q631.42-24.8 631.09-23.67 630.76-22.53 630.15-21.56 629.54-20.58 628.71-19.79 627.88-18.99 626.86-18.46L626.86-18.46Q627.88-17.92 628.71-17.13 629.54-16.33 630.15-15.34 630.76-14.36 631.09-13.22 631.42-12.08 631.42-10.84L631.42-10.84 631.42-8.59ZM628.27-8.59L628.27-11.35Q628.27-12.52 627.83-13.54 627.4-14.55 626.63-15.31 625.86-16.06 624.84-16.5 623.83-16.94 622.66-16.94L622.66-16.94 614.87-16.94 614.87-3 622.66-3Q623.83-3 624.84-3.44 625.86-3.88 626.63-4.64 627.4-5.4 627.83-6.41 628.27-7.42 628.27-8.59L628.27-8.59ZM628.27-25.56L628.27-26.39Q628.27-27.56 627.83-28.58 627.4-29.59 626.63-30.36 625.86-31.13 624.84-31.57 623.83-32.01 622.66-32.01L622.66-32.01 614.87-32.01 614.87-19.95 622.66-19.95Q623.83-19.95 624.84-20.39 625.86-20.83 626.63-21.59 627.4-22.36 627.83-23.38 628.27-24.39 628.27-25.56L628.27-25.56ZM653.13 0L652.12 0 650.46-2.49Q649.44-1.15 647.9-0.33 646.36 0.49 644.53 0.49L644.53 0.49 643.77 0.49Q642.26 0.49 640.92-0.09 639.58-0.66 638.57-1.66 637.57-2.66 637-4 636.43-5.35 636.43-6.86L636.43-6.86 636.43-7.1Q636.43-8.62 637-9.96 637.57-11.3 638.57-12.3 639.58-13.31 640.92-13.88 642.26-14.45 643.77-14.45L643.77-14.45 650.12-14.45 650.12-18.31Q650.12-19.21 649.78-20.01 649.44-20.8 648.85-21.39 648.27-21.97 647.47-22.31 646.68-22.66 645.78-22.66L645.78-22.66 644.02-22.66Q643.12-22.66 642.32-22.31 641.53-21.97 640.94-21.39 640.36-20.8 640.02-20.01 639.67-19.21 639.67-18.31L639.67-18.31 639.67-17.41 636.67-17.9 636.67-18.14Q636.67-19.65 637.24-21 637.82-22.34 638.82-23.34 639.82-24.34 641.16-24.91 642.51-25.49 644.02-25.49L644.02-25.49 645.78-25.49Q647.29-25.49 648.63-24.91 649.98-24.34 650.98-23.34 651.98-22.34 652.55-21 653.13-19.65 653.13-18.14L653.13-18.14 653.13 0ZM650.12-6.69L650.12-12.11 643.77-12.11Q642.87-12.11 642.08-11.77 641.28-11.43 640.7-10.83 640.11-10.23 639.77-9.44 639.43-8.64 639.43-7.74L639.43-7.74 639.43-6.69Q639.43-5.79 639.77-4.99 640.11-4.2 640.7-3.61 641.28-3.03 642.08-2.69 642.87-2.34 643.77-2.34L643.77-2.34 645.78-2.34Q646.68-2.34 647.47-2.69 648.27-3.03 648.85-3.61 649.44-4.2 649.78-4.99 650.12-5.79 650.12-6.69L650.12-6.69ZM676.32-6.35L676.32-6.35Q676.32-4.83 675.71-3.58 675.1-2.32 674.05-1.42 673-0.51 671.62-0.01 670.24 0.49 668.72 0.49L668.72 0.49 666.72 0.49Q665.21 0.49 663.83-0.09 662.45-0.66 661.41-1.66 660.37-2.66 659.75-4 659.13-5.35 659.13-6.86L659.13-6.86 659.13-7.86 662.13-8.35 662.13-6.69Q662.13-5.79 662.51-4.99 662.89-4.2 663.52-3.61 664.16-3.03 664.99-2.69 665.82-2.34 666.72-2.34L666.72-2.34 668.72-2.34Q669.63-2.34 670.46-2.61 671.29-2.88 671.93-3.38 672.58-3.88 672.96-4.59 673.34-5.3 673.34-6.2L673.34-6.2Q673.34-7.54 672.75-8.4 672.17-9.25 671.2-9.83 670.24-10.4 669-10.78 667.77-11.16 666.48-11.54 665.18-11.91 663.95-12.4 662.72-12.89 661.75-13.68 660.79-14.48 660.2-15.67 659.62-16.87 659.62-18.65L659.62-18.65Q659.62-20.17 660.2-21.42 660.79-22.68 661.79-23.58 662.79-24.49 664.12-24.99 665.45-25.49 666.97-25.49L666.97-25.49 668.72-25.49Q670.24-25.49 671.58-24.91 672.92-24.34 673.92-23.34 674.92-22.34 675.5-21 676.07-19.65 676.07-18.14L676.07-18.14 676.07-18.04 673.07-17.55 673.07-18.31Q673.07-19.21 672.73-20.01 672.39-20.8 671.8-21.39 671.21-21.97 670.42-22.31 669.63-22.66 668.72-22.66L668.72-22.66 666.97-22.66Q666.06-22.66 665.27-22.39 664.48-22.12 663.89-21.62 663.3-21.12 662.96-20.41 662.62-19.7 662.62-18.8L662.62-18.8Q662.62-17.5 663.21-16.69 663.79-15.87 664.76-15.31 665.72-14.75 666.95-14.37 668.19-13.99 669.47-13.59 670.75-13.18 671.98-12.67 673.22-12.16 674.18-11.35 675.14-10.55 675.73-9.34 676.32-8.13 676.32-6.35ZM698.77-6.86L698.77-6.86Q698.77-5.35 698.2-4 697.63-2.66 696.63-1.66 695.63-0.66 694.28-0.09 692.94 0.49 691.43 0.49L691.43 0.49 689.42 0.49Q687.91 0.49 686.57-0.09 685.22-0.66 684.22-1.66 683.22-2.66 682.65-4 682.08-5.35 682.08-6.86L682.08-6.86 682.08-18.14Q682.08-19.65 682.65-21 683.22-22.34 684.22-23.34 685.22-24.34 686.57-24.91 687.91-25.49 689.42-25.49L689.42-25.49 691.43-25.49Q692.94-25.49 694.28-24.91 695.63-24.34 696.63-23.34 697.63-22.34 698.2-21 698.77-19.65 698.77-18.14L698.77-18.14 698.77-12.26 685.08-12.26 685.08-6.69Q685.08-5.79 685.42-4.99 685.76-4.2 686.35-3.61 686.93-3.03 687.73-2.69 688.52-2.34 689.42-2.34L689.42-2.34 691.43-2.34Q692.33-2.34 693.12-2.69 693.92-3.03 694.5-3.61 695.09-4.2 695.43-4.99 695.77-5.79 695.77-6.69L695.77-6.69 695.77-8.35 698.77-7.86 698.77-6.86ZM695.77-14.6L695.77-18.31Q695.77-19.21 695.43-20.01 695.09-20.8 694.5-21.39 693.92-21.97 693.12-22.31 692.33-22.66 691.43-22.66L691.43-22.66 689.42-22.66Q688.52-22.66 687.73-22.31 686.93-21.97 686.35-21.39 685.76-20.8 685.42-20.01 685.08-19.21 685.08-18.31L685.08-18.31 685.08-14.6 695.77-14.6ZM721.48 0L720.48 0 718.82-2.54Q717.79-1.15 716.25-0.33 714.71 0.49 712.88 0.49L712.88 0.49 712.13 0.49Q710.61 0.49 709.27-0.09 707.93-0.66 706.93-1.66 705.93-2.66 705.35-4 704.78-5.35 704.78-6.86L704.78-6.86 704.78-18.14Q704.78-19.65 705.35-21 705.93-22.34 706.93-23.34 707.93-24.34 709.27-24.91 710.61-25.49 712.13-25.49L712.13-25.49 712.88-25.49Q714.57-25.49 716.01-24.8 717.45-24.12 718.47-22.9L718.47-22.9 718.47-35.01 721.48-35.01 721.48 0ZM718.47-6.69L718.47-18.31Q718.47-19.21 718.13-20.01 717.79-20.8 717.2-21.39 716.62-21.97 715.83-22.31 715.03-22.66 714.13-22.66L714.13-22.66 712.13-22.66Q711.22-22.66 710.43-22.31 709.64-21.97 709.05-21.39 708.46-20.8 708.12-20.01 707.78-19.21 707.78-18.31L707.78-18.31 707.78-6.69Q707.78-5.79 708.12-4.99 708.46-4.2 709.05-3.61 709.64-3.03 710.43-2.69 711.22-2.34 712.13-2.34L712.13-2.34 714.13-2.34Q715.03-2.34 715.83-2.69 716.62-3.03 717.2-3.61 717.79-4.2 718.13-4.99 718.47-5.79 718.47-6.69L718.47-6.69Z" fill="#556970" data-fill-palette-color="primary"></path><path d="M756.68-32.01L740.13-32.01 740.13-18.99 753.53-18.99 753.53-15.99 740.13-15.99 740.13 0 736.98 0 736.98-35.01 756.68-35.01 756.68-32.01ZM777.38-6.86L777.38-6.86Q777.38-5.35 776.81-4 776.24-2.66 775.23-1.66 774.23-0.66 772.89-0.09 771.55 0.49 770.03 0.49L770.03 0.49 768.03 0.49Q766.52 0.49 765.18-0.09 763.83-0.66 762.83-1.66 761.83-2.66 761.26-4 760.68-5.35 760.68-6.86L760.68-6.86 760.68-18.14Q760.68-19.65 761.26-21 761.83-22.34 762.83-23.34 763.83-24.34 765.18-24.91 766.52-25.49 768.03-25.49L768.03-25.49 770.03-25.49Q771.55-25.49 772.89-24.91 774.23-24.34 775.23-23.34 776.24-22.34 776.81-21 777.38-19.65 777.38-18.14L777.38-18.14 777.38-6.86ZM774.38-6.69L774.38-18.31Q774.38-19.21 774.04-20.01 773.7-20.8 773.11-21.39 772.52-21.97 771.73-22.31 770.94-22.66 770.03-22.66L770.03-22.66 768.03-22.66Q767.13-22.66 766.34-22.31 765.54-21.97 764.96-21.39 764.37-20.8 764.03-20.01 763.69-19.21 763.69-18.31L763.69-18.31 763.69-6.69Q763.69-5.79 764.03-4.99 764.37-4.2 764.96-3.61 765.54-3.03 766.34-2.69 767.13-2.34 768.03-2.34L768.03-2.34 770.03-2.34Q770.94-2.34 771.73-2.69 772.52-3.03 773.11-3.61 773.7-4.2 774.04-4.99 774.38-5.79 774.38-6.69L774.38-6.69ZM793.74-22.14L790.74-22.14Q789.83-22.14 789.04-21.8 788.24-21.46 787.66-20.87 787.07-20.29 786.73-19.49 786.39-18.7 786.39-17.8L786.39-17.8 786.39 0 783.39 0 783.39-25 784.39-25 786.02-22.46Q787.05-23.85 788.6-24.67 790.15-25.49 791.98-25.49L791.98-25.49 793.74-25.49 793.74-22.14ZM827.13-25L818.78 0 817.15 0 811.29-18.85 811.19-20.14 811.09-18.85 805.23 0 803.57 0 795.22-25 798.28-25 804.23-6.1 804.33-4.81 804.43-6.1 810.29-25 812.1-25 817.93-6.1 818.03-4.81 818.13-6.1 824.08-25 827.13-25ZM847.35 0L846.35 0 844.69-2.49Q843.66-1.15 842.12-0.33 840.58 0.49 838.75 0.49L838.75 0.49 838 0.49Q836.48 0.49 835.14-0.09 833.8-0.66 832.8-1.66 831.79-2.66 831.22-4 830.65-5.35 830.65-6.86L830.65-6.86 830.65-7.1Q830.65-8.62 831.22-9.96 831.79-11.3 832.8-12.3 833.8-13.31 835.14-13.88 836.48-14.45 838-14.45L838-14.45 844.34-14.45 844.34-18.31Q844.34-19.21 844-20.01 843.66-20.8 843.07-21.39 842.49-21.97 841.69-22.31 840.9-22.66 840-22.66L840-22.66 838.24-22.66Q837.34-22.66 836.54-22.31 835.75-21.97 835.16-21.39 834.58-20.8 834.24-20.01 833.89-19.21 833.89-18.31L833.89-18.31 833.89-17.41 830.89-17.9 830.89-18.14Q830.89-19.65 831.47-21 832.04-22.34 833.04-23.34 834.04-24.34 835.38-24.91 836.73-25.49 838.24-25.49L838.24-25.49 840-25.49Q841.51-25.49 842.85-24.91 844.2-24.34 845.2-23.34 846.2-22.34 846.77-21 847.35-19.65 847.35-18.14L847.35-18.14 847.35 0ZM844.34-6.69L844.34-12.11 838-12.11Q837.09-12.11 836.3-11.77 835.51-11.43 834.92-10.83 834.33-10.23 833.99-9.44 833.65-8.64 833.65-7.74L833.65-7.74 833.65-6.69Q833.65-5.79 833.99-4.99 834.33-4.2 834.92-3.61 835.51-3.03 836.3-2.69 837.09-2.34 838-2.34L838-2.34 840-2.34Q840.9-2.34 841.69-2.69 842.49-3.03 843.07-3.61 843.66-4.2 844-4.99 844.34-5.79 844.34-6.69L844.34-6.69ZM863.7-22.14L860.7-22.14Q859.8-22.14 859-21.8 858.21-21.46 857.62-20.87 857.04-20.29 856.69-19.49 856.35-18.7 856.35-17.8L856.35-17.8 856.35 0 853.35 0 853.35-25 854.35-25 855.99-22.46Q857.01-23.85 858.56-24.67 860.11-25.49 861.94-25.49L861.94-25.49 863.7-25.49 863.7-22.14ZM884.4 0L883.4 0 881.74-2.54Q880.72-1.15 879.18-0.33 877.64 0.49 875.81 0.49L875.81 0.49 875.05 0.49Q873.54 0.49 872.19-0.09 870.85-0.66 869.85-1.66 868.85-2.66 868.28-4 867.7-5.35 867.7-6.86L867.7-6.86 867.7-18.14Q867.7-19.65 868.28-21 868.85-22.34 869.85-23.34 870.85-24.34 872.19-24.91 873.54-25.49 875.05-25.49L875.05-25.49 875.81-25.49Q877.49-25.49 878.93-24.8 880.37-24.12 881.4-22.9L881.4-22.9 881.4-35.01 884.4-35.01 884.4 0ZM881.4-6.69L881.4-18.31Q881.4-19.21 881.06-20.01 880.72-20.8 880.13-21.39 879.54-21.97 878.75-22.31 877.96-22.66 877.05-22.66L877.05-22.66 875.05-22.66Q874.15-22.66 873.35-22.31 872.56-21.97 871.98-21.39 871.39-20.8 871.05-20.01 870.71-19.21 870.71-18.31L870.71-18.31 870.71-6.69Q870.71-5.79 871.05-4.99 871.39-4.2 871.98-3.61 872.56-3.03 873.35-2.69 874.15-2.34 875.05-2.34L875.05-2.34 877.05-2.34Q877.96-2.34 878.75-2.69 879.54-3.03 880.13-3.61 880.72-4.2 881.06-4.99 881.4-5.79 881.4-6.69L881.4-6.69ZM894.65-31.01L891.16-31.01 891.16-35.01 894.65-35.01 894.65-31.01ZM894.41 0L891.41 0 891.41-25 894.41-25 894.41 0ZM918.11 0L915.11 0 915.11-18.31Q915.11-19.21 914.77-20.01 914.43-20.8 913.84-21.39 913.25-21.97 912.46-22.31 911.67-22.66 910.76-22.66L910.76-22.66 908.76-22.66Q907.86-22.66 907.07-22.31 906.27-21.97 905.69-21.39 905.1-20.8 904.76-20.01 904.42-19.21 904.42-18.31L904.42-18.31 904.42 0 901.41 0 901.41-25 902.41-25 904.05-22.46Q905.08-23.85 906.63-24.67 908.18-25.49 910.01-25.49L910.01-25.49 910.76-25.49Q912.28-25.49 913.62-24.91 914.96-24.34 915.96-23.34 916.97-22.34 917.54-21 918.11-19.65 918.11-18.14L918.11-18.14 918.11 0ZM941.06 3.15L941.06 3.15Q941.06 4.66 940.49 5.93 939.91 7.2 938.91 8.11 937.91 9.01 936.57 9.51 935.22 10.01 933.71 10.01L933.71 10.01 932.47 10.01Q930.95 10.01 929.61 9.51 928.27 9.01 927.27 8.11 926.26 7.2 925.69 5.93 925.12 4.66 925.12 3.15L925.12 3.15 925.12 3.05Q925.12 1.59 925.65 0.37 926.19-0.85 927.12-1.76L927.12-1.76Q925.95-2.47 925.25-3.67 924.56-4.88 924.56-6.35L924.56-6.35Q924.56-7.67 925.12-8.8 925.68-9.94 926.66-10.64L926.66-10.64Q925.48-11.67 924.8-13.11 924.12-14.55 924.12-16.26L924.12-16.26 924.12-18.14Q924.12-19.65 924.69-21 925.26-22.34 926.26-23.34 927.27-24.34 928.61-24.91 929.95-25.49 931.46-25.49L931.46-25.49 932.71-25.49Q934.54-25.49 936.09-24.67 937.64-23.85 938.67-22.46L938.67-22.46 940.3-25 941.3-25 941.3-16.26Q941.3-14.75 940.73-13.4 940.16-12.06 939.16-11.06 938.15-10.06 936.81-9.48 935.47-8.91 933.96-8.91L933.96-8.91 929.61-8.91Q929.1-8.91 928.63-8.7 928.17-8.5 927.81-8.15 927.46-7.81 927.27-7.34 927.07-6.86 927.07-6.35L927.07-6.35Q927.07-5.83 927.27-5.37 927.46-4.91 927.81-4.55 928.17-4.2 928.63-4 929.1-3.81 929.61-3.81L929.61-3.81 933.71-3.81Q935.22-3.81 936.57-3.31 937.91-2.81 938.91-1.9 939.91-1 940.49 0.27 941.06 1.54 941.06 3.05L941.06 3.05 941.06 3.15ZM938.33-16.09L938.33-18.31Q938.33-19.21 937.98-20.01 937.64-20.8 937.04-21.39 936.45-21.97 935.65-22.31 934.86-22.66 933.96-22.66L933.96-22.66 931.46-22.66Q930.56-22.66 929.77-22.31 928.97-21.97 928.39-21.39 927.8-20.8 927.46-20.01 927.12-19.21 927.12-18.31L927.12-18.31 927.12-16.09Q927.12-15.19 927.46-14.39 927.8-13.6 928.39-13.01 928.97-12.43 929.77-12.08 930.56-11.74 931.46-11.74L931.46-11.74 933.96-11.74Q934.86-11.74 935.65-12.08 936.45-12.43 937.04-13.01 937.64-13.6 937.98-14.39 938.33-15.19 938.33-16.09L938.33-16.09ZM938.2 3.3L938.2 2.91Q938.2 2 937.86 1.28 937.52 0.56 936.93 0.07 936.35-0.42 935.55-0.68 934.76-0.95 933.86-0.95L933.86-0.95 932.32-0.95Q931.42-0.95 930.62-0.68 929.83-0.42 929.24 0.07 928.66 0.56 928.32 1.28 927.97 2 927.97 2.91L927.97 2.91 927.97 3.3Q927.97 4.2 928.32 4.91 928.66 5.62 929.24 6.12 929.83 6.62 930.62 6.88 931.42 7.15 932.32 7.15L932.32 7.15 933.86 7.15Q934.76 7.15 935.55 6.88 936.35 6.62 936.93 6.12 937.52 5.62 937.86 4.91 938.2 4.2 938.2 3.3L938.2 3.3Z" fill="#aba944" data-fill-palette-color="accent"></path></g></svg></g></svg></g></svg></g></svg></g><g></g></svg></g></svg></g><defs></defs></svg><rect width="329.08211574852743" height="87.83565738571784" fill="none" stroke="none" visibility="hidden"></rect></g></svg></g></svg>