<svg xmlns="http://www.w3.org/2000/svg" version="1.1" xmlns:xlink="http://www.w3.org/1999/xlink" xmlns:svgjs="http://svgjs.dev/svgjs" width="1500" height="486" viewBox="0 0 1500 486"><g transform="matrix(1,0,0,1,-0.7771986894294969,-1.6978645450660679)"><svg viewBox="0 0 339 110" data-background-color="#ffffff" preserveAspectRatio="xMidYMid meet" height="486" width="1500" xmlns="http://www.w3.org/2000/svg" xmlns:xlink="http://www.w3.org/1999/xlink"><g id="tight-bounds" transform="matrix(1,0,0,1,0.17564690381107084,0.3842903291301809)"><svg viewBox="0 0 338.64870619237786 109.23141934173967" height="109.23141934173967" width="338.64870619237786"><g><svg viewBox="0 0 338.64870619237786 109.23141934173967" height="109.23141934173967" width="338.64870619237786"><g><svg viewBox="0 0 338.64870619237786 109.23141934173967" height="109.23141934173967" width="338.64870619237786"><g><svg viewBox="0 0 338.64870619237786 109.23141934173967" height="109.23141934173967" width="338.64870619237786"><g id="textblocktransform"><svg viewBox="0 0 338.64870619237786 109.23141934173967" height="109.23141934173967" width="338.64870619237786" id="textblock"><g><svg viewBox="0 0 338.64870619237786 75.251220703125" height="75.251220703125" width="338.64870619237786"><g><svg><g></g><g></g></svg></g><g><svg><g><svg></svg></g><g></g></svg></g><g id="text-0"><svg viewBox="0 0 338.64870619237786 75.251220703125" height="75.251220703125" width="338.64870619237786"><g transform="matrix(1,0,0,1,0,0)"><svg width="246.215673828125" viewBox="4 -36.01 152.17 46.51" height="75.251220703125" data-palette-color="#556970"><path d="M4-4.81L4-21.19Q4-22.19 4.38-23.07 4.76-23.95 5.41-24.6 6.05-25.24 6.93-25.62 7.81-26 8.79-26L8.79-26 22.19-26 22.19-36.01 27-36.01 27 0 22.19 0 22.19-4.39Q22.12-3.49 21.7-2.69 21.29-1.88 20.64-1.28 20-0.68 19.17-0.34 18.33 0 17.41 0L17.41 0 8.79 0Q7.81 0 6.93-0.38 6.05-0.76 5.41-1.4 4.76-2.05 4.38-2.93 4-3.81 4-4.81L4-4.81ZM8.79-21.19L8.79-4.81 22.19-4.81 22.19-21.19 8.79-21.19ZM35.01-5.81L35.01-21.19Q35.01-22.19 35.39-23.07 35.76-23.95 36.41-24.6 37.06-25.24 37.94-25.62 38.82-26 39.79-26L39.79-26 48.41-26Q49.36-26 50.22-25.65 51.07-25.29 51.72-24.67 52.37-24.05 52.77-23.21 53.17-22.36 53.2-21.41L53.2-21.41 53.2-26 58.01-26 58.01 5.69Q58.01 6.69 57.63 7.57 57.25 8.45 56.6 9.09 55.95 9.74 55.08 10.12 54.2 10.5 53.2 10.5L53.2 10.5 38.01 10.5 38.01 5.69 53.2 5.69 53.2-1 39.79-1Q38.82-1 37.94-1.38 37.06-1.76 36.41-2.4 35.76-3.05 35.39-3.93 35.01-4.81 35.01-5.81L35.01-5.81ZM39.79-5.81L53.2-5.81 53.2-21.19 39.79-21.19 39.79-5.81ZM66.5-35.01L71.5-35.01 71.5-5 89.5-5 89.5 0 66.5 0 66.5-35.01ZM118.3-18.26L118.3-18.26Q119.4-17.92 120.31-17.29 121.21-16.65 121.84-15.66 122.48-14.67 122.82-13.33 123.16-11.99 123.16-10.25L123.16-10.25 123.16-8.5Q123.16 0 114.67 0L114.67 0 95.5 0 95.5-35.01 113.66-35.01Q122.16-35.01 122.16-26.49L122.16-26.49 122.16-25.85Q122.16-22.9 121.22-21.03 120.28-19.17 118.3-18.26ZM114.52-15.26L100.41-15.26 100.41-4.91 114.52-4.91Q116.5-4.91 117.38-5.83 118.25-6.76 118.25-8.74L118.25-8.74 118.25-11.45Q118.25-13.45 117.38-14.36 116.5-15.26 114.52-15.26L114.52-15.26ZM113.52-30.1L100.41-30.1 100.41-20.14 113.86-20.14Q115.67-20.21 116.46-21.13 117.25-22.05 117.25-23.95L117.25-23.95 117.25-26.25Q117.25-28.25 116.37-29.17 115.5-30.1 113.52-30.1L113.52-30.1ZM130.65 0L130.65-35.01 156.17-35.01 156.17-30 135.66-30 135.66-20 153.16-20 153.16-14.99 135.66-14.99 135.66 0 130.65 0Z" opacity="1" transform="matrix(1,0,0,1,0,0)" fill="#556970" class="wordmark-text-0" data-fill-palette-color="primary"></path></svg></g><g><svg xmlns="http://www.w3.org/2000/svg" xmlns:xlink="http://www.w3.org/1999/xlink" version="1.1" x="263.98203125" y="0" viewBox="6.759812374333089 6.421299197633704 86.47967417743321 87.1567008023663" enable-background="new 0 0 100 100" xml:space="preserve" height="75.251220703125" width="74.66667494237784" class="icon-dxe-0" data-fill-palette-color="accent" id="dxe-0"><path d="M91.498 65.179C90.315 63.588 88.686 62.582 86.823 62.245 87.027 59.724 85.787 57.246 83.325 55.635 80.759 53.955 77.18 53.579 74.301 55.486 73.412 54.127 72.216 52.984 70.734 52.102 66.702 49.697 61.066 49.779 57.028 52.297 54.268 54.019 52.545 56.665 52.081 59.784 48.989 59.23 46.143 60.047 44.021 62.163 41.029 65.147 39.984 70.323 41.588 74.204 42.827 77.201 45.414 78.92 48.684 78.92H84.418C88.027 78.92 90.912 77.298 92.333 74.47 93.799 71.554 93.463 67.82 91.498 65.179M67.425 79.196A0.514 0.514 0 0 0 66.65 79.196L63.007 83.73A0.496 0.496 0 0 0 63.394 84.538H65.475V90.595H19.571V76.399C24.806 75.669 28.852 71.175 28.852 65.744 28.852 60.004 24.335 55.312 18.67 55.003L22.111 50.72A0.496 0.496 0 0 0 21.724 49.912H19.572V34.989H50.34C53.949 34.989 56.834 33.367 58.255 30.539 59.72 27.623 59.384 23.89 57.419 21.248 56.236 19.657 54.607 18.651 52.744 18.314 52.948 15.793 51.708 13.315 49.246 11.704 46.679 10.024 43.101 9.648 40.222 11.555 39.333 10.196 38.137 9.053 36.655 8.171 32.623 5.767 26.987 5.848 22.949 8.366 20.189 10.088 18.466 12.734 18.002 15.853 14.91 15.299 12.064 16.116 9.942 18.232 6.95 21.216 5.905 26.392 7.509 30.273 8.748 33.27 11.335 34.989 14.605 34.989H16.588V49.912H14.437A0.497 0.497 0 0 0 14.05 50.72L17.496 55.01A10.67 10.67 0 0 0 9.203 59.677L8.193 59.087A0.496 0.496 0 0 0 7.446 59.518L7.462 64.779A0.47 0.47 0 0 0 7.709 65.206 0.55 0.55 0 0 0 8.202 65.211L12.794 62.644A0.498 0.498 0 0 0 12.801 61.781L11.782 61.185A7.73 7.73 0 0 1 18.08 57.954C22.375 57.954 25.87 61.449 25.87 65.743S22.375 73.532 18.08 73.532A7.745 7.745 0 0 1 10.718 68.3C10.627 68.036 10.319 67.575 9.706 67.664 9.365 67.714 8.69 67.862 8.364 67.971 7.584 68.232 7.73 68.75 7.823 69.042A10.69 10.69 0 0 0 16.589 76.404V92.087C16.589 92.91 17.257 93.578 18.08 93.578H66.967C67.79 93.578 68.458 92.91 68.458 92.087V84.539H70.681A0.497 0.497 0 0 0 71.068 83.731zM18.577 61.332V65.247H23.709A0.496 0.496 0 1 1 23.709 66.241H18.544C17.865 66.241 17.583 66.165 17.583 65.419V61.332A0.496 0.496 0 1 1 18.577 61.332" fill="#0ea18c" data-fill-palette-color="accent"></path></svg></g></svg></g></svg></g><g transform="matrix(1,0,0,1,0,93.01622788183593)"><svg viewBox="0 0 338.64870619237786 16.215191459903732" height="16.215191459903732" width="338.64870619237786"><g transform="matrix(1,0,0,1,0,0)"><svg width="338.64870619237786" viewBox="4 -35.5 941.79 45.51" height="16.215191459903732" data-palette-color="#556970"><g class="slogan-text-1" data-fill-palette-color="secondary" id="text-1"><path d="M23.71-8.59L23.71-8.59Q23.71-6.81 23.03-5.25 22.36-3.69 21.19-2.51 20.02-1.34 18.44-0.67 16.87 0 15.09 0L15.09 0 4 0 4-35.01 15.09-35.01Q16.87-35.01 18.44-34.34 20.02-33.67 21.19-32.5 22.36-31.32 23.03-29.75 23.71-28.17 23.71-26.39L23.71-26.39 23.71-8.59ZM20.56-8.59L20.56-26.39Q20.56-27.56 20.12-28.58 19.68-29.59 18.91-30.36 18.14-31.13 17.13-31.57 16.11-32.01 14.94-32.01L14.94-32.01 7.15-32.01 7.15-3 14.94-3Q16.11-3 17.13-3.44 18.14-3.88 18.91-4.64 19.68-5.4 20.12-6.41 20.56-7.42 20.56-8.59L20.56-8.59ZM46.9-6.86L46.9-6.86Q46.9-5.35 46.32-4 45.75-2.66 44.75-1.66 43.75-0.66 42.4-0.09 41.06 0.49 39.55 0.49L39.55 0.49 37.55 0.49Q36.03 0.49 34.69-0.09 33.35-0.66 32.35-1.66 31.35-2.66 30.77-4 30.2-5.35 30.2-6.86L30.2-6.86 30.2-18.14Q30.2-19.65 30.77-21 31.35-22.34 32.35-23.34 33.35-24.34 34.69-24.91 36.03-25.49 37.55-25.49L37.55-25.49 39.55-25.49Q41.06-25.49 42.4-24.91 43.75-24.34 44.75-23.34 45.75-22.34 46.32-21 46.9-19.65 46.9-18.14L46.9-18.14 46.9-12.26 33.2-12.26 33.2-6.69Q33.2-5.79 33.54-4.99 33.88-4.2 34.47-3.61 35.06-3.03 35.85-2.69 36.64-2.34 37.55-2.34L37.55-2.34 39.55-2.34Q40.45-2.34 41.25-2.69 42.04-3.03 42.62-3.61 43.21-4.2 43.55-4.99 43.89-5.79 43.89-6.69L43.89-6.69 43.89-8.35 46.9-7.86 46.9-6.86ZM43.89-14.6L43.89-18.31Q43.89-19.21 43.55-20.01 43.21-20.8 42.62-21.39 42.04-21.97 41.25-22.31 40.45-22.66 39.55-22.66L39.55-22.66 37.55-22.66Q36.64-22.66 35.85-22.31 35.06-21.97 34.47-21.39 33.88-20.8 33.54-20.01 33.2-19.21 33.2-18.31L33.2-18.31 33.2-14.6 43.89-14.6ZM69.6-6.86L69.6-6.86Q69.6-5.35 69.03-4 68.45-2.66 67.45-1.66 66.45-0.66 65.11-0.09 63.76 0.49 62.25 0.49L62.25 0.49 60.25 0.49Q58.74 0.49 57.39-0.09 56.05-0.66 55.05-1.66 54.05-2.66 53.47-4 52.9-5.35 52.9-6.86L52.9-6.86 52.9-18.14Q52.9-19.65 53.47-21 54.05-22.34 55.05-23.34 56.05-24.34 57.39-24.91 58.74-25.49 60.25-25.49L60.25-25.49 62.25-25.49Q63.76-25.49 65.11-24.91 66.45-24.34 67.45-23.34 68.45-22.34 69.03-21 69.6-19.65 69.6-18.14L69.6-18.14 69.6-17.14 66.6-16.65 66.6-18.31Q66.6-19.21 66.25-20.01 65.91-20.8 65.33-21.39 64.74-21.97 63.95-22.31 63.15-22.66 62.25-22.66L62.25-22.66 60.25-22.66Q59.35-22.66 58.55-22.31 57.76-21.97 57.17-21.39 56.59-20.8 56.25-20.01 55.9-19.21 55.9-18.31L55.9-18.31 55.9-6.69Q55.9-5.79 56.25-4.99 56.59-4.2 57.17-3.61 57.76-3.03 58.55-2.69 59.35-2.34 60.25-2.34L60.25-2.34 62.25-2.34Q63.15-2.34 63.95-2.69 64.74-3.03 65.33-3.61 65.91-4.2 66.25-4.99 66.6-5.79 66.6-6.69L66.6-6.69 66.6-8.35 69.6-7.86 69.6-6.86ZM79.61 0L76.6 0 76.6-35.01 79.61-35.01 79.61 0ZM103.31 0L102.31 0 100.65-2.49Q99.62-1.15 98.09-0.33 96.55 0.49 94.72 0.49L94.72 0.49 93.96 0.49Q92.45 0.49 91.1-0.09 89.76-0.66 88.76-1.66 87.76-2.66 87.18-4 86.61-5.35 86.61-6.86L86.61-6.86 86.61-7.1Q86.61-8.62 87.18-9.96 87.76-11.3 88.76-12.3 89.76-13.31 91.1-13.88 92.45-14.45 93.96-14.45L93.96-14.45 100.31-14.45 100.31-18.31Q100.31-19.21 99.97-20.01 99.62-20.8 99.04-21.39 98.45-21.97 97.66-22.31 96.87-22.66 95.96-22.66L95.96-22.66 94.2-22.66Q93.3-22.66 92.51-22.31 91.71-21.97 91.13-21.39 90.54-20.8 90.2-20.01 89.86-19.21 89.86-18.31L89.86-18.31 89.86-17.41 86.86-17.9 86.86-18.14Q86.86-19.65 87.43-21 88-22.34 89-23.34 90-24.34 91.35-24.91 92.69-25.49 94.2-25.49L94.2-25.49 95.96-25.49Q97.48-25.49 98.82-24.91 100.16-24.34 101.16-23.34 102.16-22.34 102.74-21 103.31-19.65 103.31-18.14L103.31-18.14 103.31 0ZM100.31-6.69L100.31-12.11 93.96-12.11Q93.06-12.11 92.26-11.77 91.47-11.43 90.88-10.83 90.3-10.23 89.96-9.44 89.61-8.64 89.61-7.74L89.61-7.74 89.61-6.69Q89.61-5.79 89.96-4.99 90.3-4.2 90.88-3.61 91.47-3.03 92.26-2.69 93.06-2.34 93.96-2.34L93.96-2.34 95.96-2.34Q96.87-2.34 97.66-2.69 98.45-3.03 99.04-3.61 99.62-4.2 99.97-4.99 100.31-5.79 100.31-6.69L100.31-6.69ZM119.67-22.14L116.66-22.14Q115.76-22.14 114.97-21.8 114.17-21.46 113.59-20.87 113-20.29 112.66-19.49 112.32-18.7 112.32-17.8L112.32-17.8 112.32 0 109.31 0 109.31-25 110.31-25 111.95-22.46Q112.98-23.85 114.53-24.67 116.08-25.49 117.91-25.49L117.91-25.49 119.67-25.49 119.67-22.14ZM140.37 0L139.36 0 137.7-2.49Q136.68-1.15 135.14-0.33 133.6 0.49 131.77 0.49L131.77 0.49 131.02 0.49Q129.5 0.49 128.16-0.09 126.82-0.66 125.82-1.66 124.81-2.66 124.24-4 123.67-5.35 123.67-6.86L123.67-6.86 123.67-7.1Q123.67-8.62 124.24-9.96 124.81-11.3 125.82-12.3 126.82-13.31 128.16-13.88 129.5-14.45 131.02-14.45L131.02-14.45 137.36-14.45 137.36-18.31Q137.36-19.21 137.02-20.01 136.68-20.8 136.09-21.39 135.51-21.97 134.71-22.31 133.92-22.66 133.02-22.66L133.02-22.66 131.26-22.66Q130.36-22.66 129.56-22.31 128.77-21.97 128.18-21.39 127.6-20.8 127.26-20.01 126.91-19.21 126.91-18.31L126.91-18.31 126.91-17.41 123.91-17.9 123.91-18.14Q123.91-19.65 124.48-21 125.06-22.34 126.06-23.34 127.06-24.34 128.4-24.91 129.75-25.49 131.26-25.49L131.26-25.49 133.02-25.49Q134.53-25.49 135.87-24.91 137.22-24.34 138.22-23.34 139.22-22.34 139.79-21 140.37-19.65 140.37-18.14L140.37-18.14 140.37 0ZM137.36-6.69L137.36-12.11 131.02-12.11Q130.11-12.11 129.32-11.77 128.53-11.43 127.94-10.83 127.35-10.23 127.01-9.44 126.67-8.64 126.67-7.74L126.67-7.74 126.67-6.69Q126.67-5.79 127.01-4.99 127.35-4.2 127.94-3.61 128.53-3.03 129.32-2.69 130.11-2.34 131.02-2.34L131.02-2.34 133.02-2.34Q133.92-2.34 134.71-2.69 135.51-3.03 136.09-3.61 136.68-4.2 137.02-4.99 137.36-5.79 137.36-6.69L137.36-6.69ZM158.21 0L155.48 0Q154.11 0 152.9-0.51 151.69-1.03 150.8-1.93 149.91-2.83 149.38-4.03 148.86-5.22 148.86-6.59L148.86-6.59 148.86-22.14 144.37-22.14 144.37-25 148.86-25 148.86-31.01 151.86-31.49 151.86-25 158.21-25 158.21-22.14 151.86-22.14 151.86-6.45Q151.86-5.69 152.14-5.04 152.42-4.39 152.91-3.91 153.4-3.42 154.06-3.14 154.72-2.86 155.48-2.86L155.48-2.86 158.21-2.86 158.21 0ZM167.97-31.01L164.48-31.01 164.48-35.01 167.97-35.01 167.97-31.01ZM167.73 0L164.73 0 164.73-25 167.73-25 167.73 0ZM191.43-25L182.57 0 181.08 0 172.22-25 175.22-25 181.74-6.05 181.84-4.76 181.94-6.05 188.43-25 191.43-25ZM211.62-6.86L211.62-6.86Q211.62-5.35 211.05-4 210.47-2.66 209.47-1.66 208.47-0.66 207.13-0.09 205.79 0.49 204.27 0.49L204.27 0.49 202.27 0.49Q200.76 0.49 199.41-0.09 198.07-0.66 197.07-1.66 196.07-2.66 195.5-4 194.92-5.35 194.92-6.86L194.92-6.86 194.92-18.14Q194.92-19.65 195.5-21 196.07-22.34 197.07-23.34 198.07-24.34 199.41-24.91 200.76-25.49 202.27-25.49L202.27-25.49 204.27-25.49Q205.79-25.49 207.13-24.91 208.47-24.34 209.47-23.34 210.47-22.34 211.05-21 211.62-19.65 211.62-18.14L211.62-18.14 211.62-12.26 197.92-12.26 197.92-6.69Q197.92-5.79 198.27-4.99 198.61-4.2 199.19-3.61 199.78-3.03 200.57-2.69 201.37-2.34 202.27-2.34L202.27-2.34 204.27-2.34Q205.18-2.34 205.97-2.69 206.76-3.03 207.35-3.61 207.93-4.2 208.28-4.99 208.62-5.79 208.62-6.69L208.62-6.69 208.62-8.35 211.62-7.86 211.62-6.86ZM208.62-14.6L208.62-18.31Q208.62-19.21 208.28-20.01 207.93-20.8 207.35-21.39 206.76-21.97 205.97-22.31 205.18-22.66 204.27-22.66L204.27-22.66 202.27-22.66Q201.37-22.66 200.57-22.31 199.78-21.97 199.19-21.39 198.61-20.8 198.27-20.01 197.92-19.21 197.92-18.31L197.92-18.31 197.92-14.6 208.62-14.6Z" fill="#556970" data-fill-palette-color="primary"></path><path d="M246.31-18.41L246.31 0 245.31 0 243.48-2.81Q242.33-1.29 240.69-0.4 239.06 0.49 237.06 0.49L237.06 0.49 235.23 0.49Q233.44 0.49 231.87-0.18 230.29-0.85 229.12-2.03 227.95-3.2 227.28-4.76 226.61-6.32 226.61-8.11L226.61-8.11 226.61-26.9Q226.61-28.69 227.28-30.25 227.95-31.81 229.12-32.98 230.29-34.16 231.87-34.83 233.44-35.5 235.23-35.5L235.23-35.5 237.72-35.5Q239.5-35.5 241.06-34.83 242.62-34.16 243.8-32.98 244.97-31.81 245.64-30.25 246.31-28.69 246.31-26.9L246.31-26.9 246.31-25.49 243.16-25 243.16-26.9Q243.16-28.08 242.72-29.09 242.28-30.1 241.52-30.86 240.77-31.62 239.75-32.06 238.74-32.5 237.57-32.5L237.57-32.5 235.37-32.5Q234.2-32.5 233.19-32.06 232.17-31.62 231.41-30.86 230.64-30.1 230.2-29.09 229.76-28.08 229.76-26.9L229.76-26.9 229.76-8.11Q229.76-6.93 230.2-5.92 230.64-4.91 231.41-4.14 232.17-3.37 233.19-2.93 234.2-2.49 235.37-2.49L235.37-2.49 237.57-2.49Q238.74-2.49 239.75-2.93 240.77-3.37 241.52-4.14 242.28-4.91 242.72-5.92 243.16-6.93 243.16-8.11L243.16-8.11 243.16-15.41 237.57-15.41 237.57-18.41 246.31-18.41ZM269.53 0L268.52 0 266.86-2.54Q265.84-1.15 264.3-0.33 262.76 0.49 260.93 0.49L260.93 0.49 260.17 0.49Q258.66 0.49 257.32-0.09 255.98-0.66 254.97-1.66 253.97-2.66 253.4-4 252.83-5.35 252.83-6.86L252.83-6.86 252.83-25 255.83-25 255.83-6.69Q255.83-5.79 256.17-4.99 256.51-4.2 257.1-3.61 257.68-3.03 258.48-2.69 259.27-2.34 260.17-2.34L260.17-2.34 262.18-2.34Q263.08-2.34 263.87-2.69 264.67-3.03 265.25-3.61 265.84-4.2 266.18-4.99 266.52-5.79 266.52-6.69L266.52-6.69 266.52-25 269.53-25 269.53 0ZM292.23 0L291.23 0 289.57-2.49Q288.54-1.15 287-0.33 285.47 0.49 283.63 0.49L283.63 0.49 282.88 0.49Q281.36 0.49 280.02-0.09 278.68-0.66 277.68-1.66 276.68-2.66 276.1-4 275.53-5.35 275.53-6.86L275.53-6.86 275.53-7.1Q275.53-8.62 276.1-9.96 276.68-11.3 277.68-12.3 278.68-13.31 280.02-13.88 281.36-14.45 282.88-14.45L282.88-14.45 289.22-14.45 289.22-18.31Q289.22-19.21 288.88-20.01 288.54-20.8 287.96-21.39 287.37-21.97 286.58-22.31 285.78-22.66 284.88-22.66L284.88-22.66 283.12-22.66Q282.22-22.66 281.42-22.31 280.63-21.97 280.05-21.39 279.46-20.8 279.12-20.01 278.78-19.21 278.78-18.31L278.78-18.31 278.78-17.41 275.77-17.9 275.77-18.14Q275.77-19.65 276.35-21 276.92-22.34 277.92-23.34 278.92-24.34 280.26-24.91 281.61-25.49 283.12-25.49L283.12-25.49 284.88-25.49Q286.39-25.49 287.74-24.91 289.08-24.34 290.08-23.34 291.08-22.34 291.65-21 292.23-19.65 292.23-18.14L292.23-18.14 292.23 0ZM289.22-6.69L289.22-12.11 282.88-12.11Q281.97-12.11 281.18-11.77 280.39-11.43 279.8-10.83 279.22-10.23 278.87-9.44 278.53-8.64 278.53-7.74L278.53-7.74 278.53-6.69Q278.53-5.79 278.87-4.99 279.22-4.2 279.8-3.61 280.39-3.03 281.18-2.69 281.97-2.34 282.88-2.34L282.88-2.34 284.88-2.34Q285.78-2.34 286.58-2.69 287.37-3.03 287.96-3.61 288.54-4.2 288.88-4.99 289.22-5.79 289.22-6.69L289.22-6.69ZM308.58-22.14L305.58-22.14Q304.68-22.14 303.88-21.8 303.09-21.46 302.5-20.87 301.92-20.29 301.58-19.49 301.23-18.7 301.23-17.8L301.23-17.8 301.23 0 298.23 0 298.23-25 299.23-25 300.87-22.46Q301.89-23.85 303.44-24.67 304.99-25.49 306.82-25.49L306.82-25.49 308.58-25.49 308.58-22.14ZM329.28 0L328.28 0 326.62-2.49Q325.6-1.15 324.06-0.33 322.52 0.49 320.69 0.49L320.69 0.49 319.93 0.49Q318.42 0.49 317.08-0.09 315.73-0.66 314.73-1.66 313.73-2.66 313.16-4 312.58-5.35 312.58-6.86L312.58-6.86 312.58-7.1Q312.58-8.62 313.16-9.96 313.73-11.3 314.73-12.3 315.73-13.31 317.08-13.88 318.42-14.45 319.93-14.45L319.93-14.45 326.28-14.45 326.28-18.31Q326.28-19.21 325.94-20.01 325.6-20.8 325.01-21.39 324.42-21.97 323.63-22.31 322.84-22.66 321.93-22.66L321.93-22.66 320.18-22.66Q319.27-22.66 318.48-22.31 317.69-21.97 317.1-21.39 316.51-20.8 316.17-20.01 315.83-19.21 315.83-18.31L315.83-18.31 315.83-17.41 312.83-17.9 312.83-18.14Q312.83-19.65 313.4-21 313.98-22.34 314.98-23.34 315.98-24.34 317.32-24.91 318.66-25.49 320.18-25.49L320.18-25.49 321.93-25.49Q323.45-25.49 324.79-24.91 326.13-24.34 327.13-23.34 328.14-22.34 328.71-21 329.28-19.65 329.28-18.14L329.28-18.14 329.28 0ZM326.28-6.69L326.28-12.11 319.93-12.11Q319.03-12.11 318.24-11.77 317.44-11.43 316.86-10.83 316.27-10.23 315.93-9.44 315.59-8.64 315.59-7.74L315.59-7.74 315.59-6.69Q315.59-5.79 315.93-4.99 316.27-4.2 316.86-3.61 317.44-3.03 318.24-2.69 319.03-2.34 319.93-2.34L319.93-2.34 321.93-2.34Q322.84-2.34 323.63-2.69 324.42-3.03 325.01-3.61 325.6-4.2 325.94-4.99 326.28-5.79 326.28-6.69L326.28-6.69ZM351.99 0L348.98 0 348.98-18.31Q348.98-19.21 348.64-20.01 348.3-20.8 347.71-21.39 347.13-21.97 346.33-22.31 345.54-22.66 344.64-22.66L344.64-22.66 342.64-22.66Q341.73-22.66 340.94-22.31 340.15-21.97 339.56-21.39 338.97-20.8 338.63-20.01 338.29-19.21 338.29-18.31L338.29-18.31 338.29 0 335.29 0 335.29-25 336.29-25 337.92-22.46Q338.95-23.85 340.5-24.67 342.05-25.49 343.88-25.49L343.88-25.49 344.64-25.49Q346.15-25.49 347.49-24.91 348.84-24.34 349.84-23.34 350.84-22.34 351.41-21 351.99-19.65 351.99-18.14L351.99-18.14 351.99 0ZM369.83 0L367.1 0Q365.73 0 364.52-0.51 363.31-1.03 362.42-1.93 361.53-2.83 361-4.03 360.48-5.22 360.48-6.59L360.48-6.59 360.48-22.14 355.99-22.14 355.99-25 360.48-25 360.48-31.01 363.48-31.49 363.48-25 369.83-25 369.83-22.14 363.48-22.14 363.48-6.45Q363.48-5.69 363.76-5.04 364.04-4.39 364.53-3.91 365.02-3.42 365.68-3.14 366.34-2.86 367.1-2.86L367.1-2.86 369.83-2.86 369.83 0ZM392.04-6.86L392.04-6.86Q392.04-5.35 391.47-4 390.9-2.66 389.9-1.66 388.89-0.66 387.55-0.09 386.21 0.49 384.7 0.49L384.7 0.49 382.69 0.49Q381.18 0.49 379.84-0.09 378.49-0.66 377.49-1.66 376.49-2.66 375.92-4 375.35-5.35 375.35-6.86L375.35-6.86 375.35-18.14Q375.35-19.65 375.92-21 376.49-22.34 377.49-23.34 378.49-24.34 379.84-24.91 381.18-25.49 382.69-25.49L382.69-25.49 384.7-25.49Q386.21-25.49 387.55-24.91 388.89-24.34 389.9-23.34 390.9-22.34 391.47-21 392.04-19.65 392.04-18.14L392.04-18.14 392.04-12.26 378.35-12.26 378.35-6.69Q378.35-5.79 378.69-4.99 379.03-4.2 379.62-3.61 380.2-3.03 381-2.69 381.79-2.34 382.69-2.34L382.69-2.34 384.7-2.34Q385.6-2.34 386.39-2.69 387.19-3.03 387.77-3.61 388.36-4.2 388.7-4.99 389.04-5.79 389.04-6.69L389.04-6.69 389.04-8.35 392.04-7.86 392.04-6.86ZM389.04-14.6L389.04-18.31Q389.04-19.21 388.7-20.01 388.36-20.8 387.77-21.39 387.19-21.97 386.39-22.31 385.6-22.66 384.7-22.66L384.7-22.66 382.69-22.66Q381.79-22.66 381-22.31 380.2-21.97 379.62-21.39 379.03-20.8 378.69-20.01 378.35-19.21 378.35-18.31L378.35-18.31 378.35-14.6 389.04-14.6ZM414.75-6.86L414.75-6.86Q414.75-5.35 414.17-4 413.6-2.66 412.6-1.66 411.6-0.66 410.25-0.09 408.91 0.49 407.4 0.49L407.4 0.49 405.4 0.49Q403.88 0.49 402.54-0.09 401.2-0.66 400.2-1.66 399.2-2.66 398.62-4 398.05-5.35 398.05-6.86L398.05-6.86 398.05-18.14Q398.05-19.65 398.62-21 399.2-22.34 400.2-23.34 401.2-24.34 402.54-24.91 403.88-25.49 405.4-25.49L405.4-25.49 407.4-25.49Q408.91-25.49 410.25-24.91 411.6-24.34 412.6-23.34 413.6-22.34 414.17-21 414.75-19.65 414.75-18.14L414.75-18.14 414.75-12.26 401.05-12.26 401.05-6.69Q401.05-5.79 401.39-4.99 401.73-4.2 402.32-3.61 402.91-3.03 403.7-2.69 404.49-2.34 405.4-2.34L405.4-2.34 407.4-2.34Q408.3-2.34 409.1-2.69 409.89-3.03 410.47-3.61 411.06-4.2 411.4-4.99 411.74-5.79 411.74-6.69L411.74-6.69 411.74-8.35 414.75-7.86 414.75-6.86ZM411.74-14.6L411.74-18.31Q411.74-19.21 411.4-20.01 411.06-20.8 410.47-21.39 409.89-21.97 409.1-22.31 408.3-22.66 407.4-22.66L407.4-22.66 405.4-22.66Q404.49-22.66 403.7-22.31 402.91-21.97 402.32-21.39 401.73-20.8 401.39-20.01 401.05-19.21 401.05-18.31L401.05-18.31 401.05-14.6 411.74-14.6ZM437.45 0L436.45 0 434.79-2.54Q433.76-1.15 432.22-0.33 430.69 0.49 428.86 0.49L428.86 0.49 428.1 0.49Q426.59 0.49 425.24-0.09 423.9-0.66 422.9-1.66 421.9-2.66 421.32-4 420.75-5.35 420.75-6.86L420.75-6.86 420.75-18.14Q420.75-19.65 421.32-21 421.9-22.34 422.9-23.34 423.9-24.34 425.24-24.91 426.59-25.49 428.1-25.49L428.1-25.49 428.86-25.49Q430.54-25.49 431.98-24.8 433.42-24.12 434.45-22.9L434.45-22.9 434.45-35.01 437.45-35.01 437.45 0ZM434.45-6.69L434.45-18.31Q434.45-19.21 434.1-20.01 433.76-20.8 433.18-21.39 432.59-21.97 431.8-22.31 431-22.66 430.1-22.66L430.1-22.66 428.1-22.66Q427.2-22.66 426.4-22.31 425.61-21.97 425.02-21.39 424.44-20.8 424.1-20.01 423.75-19.21 423.75-18.31L423.75-18.31 423.75-6.69Q423.75-5.79 424.1-4.99 424.44-4.2 425.02-3.61 425.61-3.03 426.4-2.69 427.2-2.34 428.1-2.34L428.1-2.34 430.1-2.34Q431-2.34 431.8-2.69 432.59-3.03 433.18-3.61 433.76-4.2 434.1-4.99 434.45-5.79 434.45-6.69L434.45-6.69Z" fill="#0ea18c" data-fill-palette-color="accent"></path><path d="M468.99 0L452.44 0 452.44-35.01 455.59-35.01 455.59-3 468.99-3 468.99 0ZM489.69 0L488.69 0 487.03-2.49Q486-1.15 484.47-0.33 482.93 0.49 481.1 0.49L481.1 0.49 480.34 0.49Q478.83 0.49 477.48-0.09 476.14-0.66 475.14-1.66 474.14-2.66 473.57-4 472.99-5.35 472.99-6.86L472.99-6.86 472.99-7.1Q472.99-8.62 473.57-9.96 474.14-11.3 475.14-12.3 476.14-13.31 477.48-13.88 478.83-14.45 480.34-14.45L480.34-14.45 486.69-14.45 486.69-18.31Q486.69-19.21 486.35-20.01 486-20.8 485.42-21.39 484.83-21.97 484.04-22.31 483.25-22.66 482.34-22.66L482.34-22.66 480.58-22.66Q479.68-22.66 478.89-22.31 478.09-21.97 477.51-21.39 476.92-20.8 476.58-20.01 476.24-19.21 476.24-18.31L476.24-18.31 476.24-17.41 473.24-17.9 473.24-18.14Q473.24-19.65 473.81-21 474.38-22.34 475.38-23.34 476.39-24.34 477.73-24.91 479.07-25.49 480.58-25.49L480.58-25.49 482.34-25.49Q483.86-25.49 485.2-24.91 486.54-24.34 487.54-23.34 488.54-22.34 489.12-21 489.69-19.65 489.69-18.14L489.69-18.14 489.69 0ZM486.69-6.69L486.69-12.11 480.34-12.11Q479.44-12.11 478.64-11.77 477.85-11.43 477.26-10.83 476.68-10.23 476.34-9.44 475.99-8.64 475.99-7.74L475.99-7.74 475.99-6.69Q475.99-5.79 476.34-4.99 476.68-4.2 477.26-3.61 477.85-3.03 478.64-2.69 479.44-2.34 480.34-2.34L480.34-2.34 482.34-2.34Q483.25-2.34 484.04-2.69 484.83-3.03 485.42-3.61 486-4.2 486.35-4.99 486.69-5.79 486.69-6.69L486.69-6.69ZM507.54 0L504.8 0Q503.43 0 502.23-0.51 501.02-1.03 500.13-1.93 499.23-2.83 498.71-4.03 498.18-5.22 498.18-6.59L498.18-6.59 498.18-22.14 493.69-22.14 493.69-25 498.18-25 498.18-31.01 501.19-31.49 501.19-25 507.54-25 507.54-22.14 501.19-22.14 501.19-6.45Q501.19-5.69 501.47-5.04 501.75-4.39 502.24-3.91 502.73-3.42 503.38-3.14 504.04-2.86 504.8-2.86L504.8-2.86 507.54-2.86 507.54 0ZM529.75-6.86L529.75-6.86Q529.75-5.35 529.18-4 528.6-2.66 527.6-1.66 526.6-0.66 525.26-0.09 523.91 0.49 522.4 0.49L522.4 0.49 520.4 0.49Q518.89 0.49 517.54-0.09 516.2-0.66 515.2-1.66 514.2-2.66 513.62-4 513.05-5.35 513.05-6.86L513.05-6.86 513.05-18.14Q513.05-19.65 513.62-21 514.2-22.34 515.2-23.34 516.2-24.34 517.54-24.91 518.89-25.49 520.4-25.49L520.4-25.49 522.4-25.49Q523.91-25.49 525.26-24.91 526.6-24.34 527.6-23.34 528.6-22.34 529.18-21 529.75-19.65 529.75-18.14L529.75-18.14 529.75-12.26 516.05-12.26 516.05-6.69Q516.05-5.79 516.4-4.99 516.74-4.2 517.32-3.61 517.91-3.03 518.7-2.69 519.5-2.34 520.4-2.34L520.4-2.34 522.4-2.34Q523.3-2.34 524.1-2.69 524.89-3.03 525.48-3.61 526.06-4.2 526.4-4.99 526.75-5.79 526.75-6.69L526.75-6.69 526.75-8.35 529.75-7.86 529.75-6.86ZM526.75-14.6L526.75-18.31Q526.75-19.21 526.4-20.01 526.06-20.8 525.48-21.39 524.89-21.97 524.1-22.31 523.3-22.66 522.4-22.66L522.4-22.66 520.4-22.66Q519.5-22.66 518.7-22.31 517.91-21.97 517.32-21.39 516.74-20.8 516.4-20.01 516.05-19.21 516.05-18.31L516.05-18.31 516.05-14.6 526.75-14.6ZM552.45 0L549.45 0 549.45-18.31Q549.45-19.21 549.11-20.01 548.77-20.8 548.18-21.39 547.59-21.97 546.8-22.31 546.01-22.66 545.1-22.66L545.1-22.66 543.1-22.66Q542.2-22.66 541.4-22.31 540.61-21.97 540.03-21.39 539.44-20.8 539.1-20.01 538.76-19.21 538.76-18.31L538.76-18.31 538.76 0 535.75 0 535.75-25 536.75-25 538.39-22.46Q539.42-23.85 540.97-24.67 542.52-25.49 544.35-25.49L544.35-25.49 545.1-25.49Q546.62-25.49 547.96-24.91 549.3-24.34 550.3-23.34 551.3-22.34 551.88-21 552.45-19.65 552.45-18.14L552.45-18.14 552.45 0ZM575.15-6.86L575.15-6.86Q575.15-5.35 574.58-4 574.01-2.66 573.01-1.66 572.01-0.66 570.66-0.09 569.32 0.49 567.81 0.49L567.81 0.49 565.8 0.49Q564.29 0.49 562.95-0.09 561.6-0.66 560.6-1.66 559.6-2.66 559.03-4 558.46-5.35 558.46-6.86L558.46-6.86 558.46-18.14Q558.46-19.65 559.03-21 559.6-22.34 560.6-23.34 561.6-24.34 562.95-24.91 564.29-25.49 565.8-25.49L565.8-25.49 567.81-25.49Q569.32-25.49 570.66-24.91 572.01-24.34 573.01-23.34 574.01-22.34 574.58-21 575.15-19.65 575.15-18.14L575.15-18.14 575.15-17.14 572.15-16.65 572.15-18.31Q572.15-19.21 571.81-20.01 571.47-20.8 570.88-21.39 570.3-21.97 569.5-22.31 568.71-22.66 567.81-22.66L567.81-22.66 565.8-22.66Q564.9-22.66 564.11-22.31 563.31-21.97 562.73-21.39 562.14-20.8 561.8-20.01 561.46-19.21 561.46-18.31L561.46-18.31 561.46-6.69Q561.46-5.79 561.8-4.99 562.14-4.2 562.73-3.61 563.31-3.03 564.11-2.69 564.9-2.34 565.8-2.34L565.8-2.34 567.81-2.34Q568.71-2.34 569.5-2.69 570.3-3.03 570.88-3.61 571.47-4.2 571.81-4.99 572.15-5.79 572.15-6.69L572.15-6.69 572.15-8.35 575.15-7.86 575.15-6.86ZM597.86-25L585.21 10.01 582.31 10.01 586.75-2.15 578.64-25 581.65-25 588.16-6.05 588.26-4.76 588.36-6.05 594.85-25 597.86-25ZM609.7-15.31L600.35-15.31 600.35-18.14 609.7-18.14 609.7-15.31ZM635.91-8.59L635.91-8.59Q635.91-6.81 635.24-5.25 634.57-3.69 633.4-2.51 632.23-1.34 630.65-0.67 629.08 0 627.3 0L627.3 0 616.21 0 616.21-35.01 627.3-35.01Q629.08-35.01 630.65-34.34 632.23-33.67 633.4-32.5 634.57-31.32 635.24-29.75 635.91-28.17 635.91-26.39L635.91-26.39 635.91-26.05Q635.91-24.8 635.58-23.67 635.25-22.53 634.64-21.56 634.03-20.58 633.2-19.79 632.37-18.99 631.35-18.46L631.35-18.46Q632.37-17.92 633.2-17.13 634.03-16.33 634.64-15.34 635.25-14.36 635.58-13.22 635.91-12.08 635.91-10.84L635.91-10.84 635.91-8.59ZM632.76-8.59L632.76-11.35Q632.76-12.52 632.32-13.54 631.89-14.55 631.12-15.31 630.35-16.06 629.33-16.5 628.32-16.94 627.15-16.94L627.15-16.94 619.36-16.94 619.36-3 627.15-3Q628.32-3 629.33-3.44 630.35-3.88 631.12-4.64 631.89-5.4 632.32-6.41 632.76-7.42 632.76-8.59L632.76-8.59ZM632.76-25.56L632.76-26.39Q632.76-27.56 632.32-28.58 631.89-29.59 631.12-30.36 630.35-31.13 629.33-31.57 628.32-32.01 627.15-32.01L627.15-32.01 619.36-32.01 619.36-19.95 627.15-19.95Q628.32-19.95 629.33-20.39 630.35-20.83 631.12-21.59 631.89-22.36 632.32-23.38 632.76-24.39 632.76-25.56L632.76-25.56ZM657.62 0L656.61 0 654.95-2.49Q653.93-1.15 652.39-0.33 650.85 0.49 649.02 0.49L649.02 0.49 648.26 0.49Q646.75 0.49 645.41-0.09 644.07-0.66 643.06-1.66 642.06-2.66 641.49-4 640.92-5.35 640.92-6.86L640.92-6.86 640.92-7.1Q640.92-8.62 641.49-9.96 642.06-11.3 643.06-12.3 644.07-13.31 645.41-13.88 646.75-14.45 648.26-14.45L648.26-14.45 654.61-14.45 654.61-18.31Q654.61-19.21 654.27-20.01 653.93-20.8 653.34-21.39 652.76-21.97 651.96-22.31 651.17-22.66 650.27-22.66L650.27-22.66 648.51-22.66Q647.61-22.66 646.81-22.31 646.02-21.97 645.43-21.39 644.85-20.8 644.51-20.01 644.16-19.21 644.16-18.31L644.16-18.31 644.16-17.41 641.16-17.9 641.16-18.14Q641.16-19.65 641.73-21 642.31-22.34 643.31-23.34 644.31-24.34 645.65-24.91 647-25.49 648.51-25.49L648.51-25.49 650.27-25.49Q651.78-25.49 653.12-24.91 654.47-24.34 655.47-23.34 656.47-22.34 657.04-21 657.62-19.65 657.62-18.14L657.62-18.14 657.62 0ZM654.61-6.69L654.61-12.11 648.26-12.11Q647.36-12.11 646.57-11.77 645.77-11.43 645.19-10.83 644.6-10.23 644.26-9.44 643.92-8.64 643.92-7.74L643.92-7.74 643.92-6.69Q643.92-5.79 644.26-4.99 644.6-4.2 645.19-3.61 645.77-3.03 646.57-2.69 647.36-2.34 648.26-2.34L648.26-2.34 650.27-2.34Q651.17-2.34 651.96-2.69 652.76-3.03 653.34-3.61 653.93-4.2 654.27-4.99 654.61-5.79 654.61-6.69L654.61-6.69ZM680.81-6.35L680.81-6.35Q680.81-4.83 680.2-3.58 679.59-2.32 678.54-1.42 677.49-0.51 676.11-0.01 674.73 0.49 673.21 0.49L673.21 0.49 671.21 0.49Q669.7 0.49 668.32-0.09 666.94-0.66 665.9-1.66 664.86-2.66 664.24-4 663.62-5.35 663.62-6.86L663.62-6.86 663.62-7.86 666.62-8.35 666.62-6.69Q666.62-5.79 667-4.99 667.38-4.2 668.01-3.61 668.65-3.03 669.48-2.69 670.31-2.34 671.21-2.34L671.21-2.34 673.21-2.34Q674.12-2.34 674.95-2.61 675.78-2.88 676.42-3.38 677.07-3.88 677.45-4.59 677.83-5.3 677.83-6.2L677.83-6.2Q677.83-7.54 677.24-8.4 676.66-9.25 675.69-9.83 674.73-10.4 673.49-10.78 672.26-11.16 670.97-11.54 669.67-11.91 668.44-12.4 667.21-12.89 666.24-13.68 665.28-14.48 664.69-15.67 664.11-16.87 664.11-18.65L664.11-18.65Q664.11-20.17 664.69-21.42 665.28-22.68 666.28-23.58 667.28-24.49 668.61-24.99 669.94-25.49 671.46-25.49L671.46-25.49 673.21-25.49Q674.73-25.49 676.07-24.91 677.41-24.34 678.41-23.34 679.41-22.34 679.99-21 680.56-19.65 680.56-18.14L680.56-18.14 680.56-18.04 677.56-17.55 677.56-18.31Q677.56-19.21 677.22-20.01 676.88-20.8 676.29-21.39 675.7-21.97 674.91-22.31 674.12-22.66 673.21-22.66L673.21-22.66 671.46-22.66Q670.55-22.66 669.76-22.39 668.97-22.12 668.38-21.62 667.79-21.12 667.45-20.41 667.11-19.7 667.11-18.8L667.11-18.8Q667.11-17.5 667.7-16.69 668.28-15.87 669.25-15.31 670.21-14.75 671.44-14.37 672.68-13.99 673.96-13.59 675.24-13.18 676.47-12.67 677.71-12.16 678.67-11.35 679.63-10.55 680.22-9.34 680.81-8.13 680.81-6.35ZM703.26-6.86L703.26-6.86Q703.26-5.35 702.69-4 702.12-2.66 701.12-1.66 700.12-0.66 698.77-0.09 697.43 0.49 695.92 0.49L695.92 0.49 693.91 0.49Q692.4 0.49 691.06-0.09 689.71-0.66 688.71-1.66 687.71-2.66 687.14-4 686.57-5.35 686.57-6.86L686.57-6.86 686.57-18.14Q686.57-19.65 687.14-21 687.71-22.34 688.71-23.34 689.71-24.34 691.06-24.91 692.4-25.49 693.91-25.49L693.91-25.49 695.92-25.49Q697.43-25.49 698.77-24.91 700.12-24.34 701.12-23.34 702.12-22.34 702.69-21 703.26-19.65 703.26-18.14L703.26-18.14 703.26-12.26 689.57-12.26 689.57-6.69Q689.57-5.79 689.91-4.99 690.25-4.2 690.84-3.61 691.42-3.03 692.22-2.69 693.01-2.34 693.91-2.34L693.91-2.34 695.92-2.34Q696.82-2.34 697.61-2.69 698.41-3.03 698.99-3.61 699.58-4.2 699.92-4.99 700.26-5.79 700.26-6.69L700.26-6.69 700.26-8.35 703.26-7.86 703.26-6.86ZM700.26-14.6L700.26-18.31Q700.26-19.21 699.92-20.01 699.58-20.8 698.99-21.39 698.41-21.97 697.61-22.31 696.82-22.66 695.92-22.66L695.92-22.66 693.91-22.66Q693.01-22.66 692.22-22.31 691.42-21.97 690.84-21.39 690.25-20.8 689.91-20.01 689.57-19.21 689.57-18.31L689.57-18.31 689.57-14.6 700.26-14.6ZM725.97 0L724.97 0 723.31-2.54Q722.28-1.15 720.74-0.33 719.2 0.49 717.37 0.49L717.37 0.49 716.62 0.49Q715.1 0.49 713.76-0.09 712.42-0.66 711.42-1.66 710.42-2.66 709.84-4 709.27-5.35 709.27-6.86L709.27-6.86 709.27-18.14Q709.27-19.65 709.84-21 710.42-22.34 711.42-23.34 712.42-24.34 713.76-24.91 715.1-25.49 716.62-25.49L716.62-25.49 717.37-25.49Q719.06-25.49 720.5-24.8 721.94-24.12 722.96-22.9L722.96-22.9 722.96-35.01 725.97-35.01 725.97 0ZM722.96-6.69L722.96-18.31Q722.96-19.21 722.62-20.01 722.28-20.8 721.69-21.39 721.11-21.97 720.32-22.31 719.52-22.66 718.62-22.66L718.62-22.66 716.62-22.66Q715.71-22.66 714.92-22.31 714.13-21.97 713.54-21.39 712.95-20.8 712.61-20.01 712.27-19.21 712.27-18.31L712.27-18.31 712.27-6.69Q712.27-5.79 712.61-4.99 712.95-4.2 713.54-3.61 714.13-3.03 714.92-2.69 715.71-2.34 716.62-2.34L716.62-2.34 718.62-2.34Q719.52-2.34 720.32-2.69 721.11-3.03 721.69-3.61 722.28-4.2 722.62-4.99 722.96-5.79 722.96-6.69L722.96-6.69Z" fill="#556970" data-fill-palette-color="primary"></path><path d="M761.17-32.01L744.62-32.01 744.62-18.99 758.02-18.99 758.02-15.99 744.62-15.99 744.62 0 741.47 0 741.47-35.01 761.17-35.01 761.17-32.01ZM781.87-6.86L781.87-6.86Q781.87-5.35 781.3-4 780.73-2.66 779.72-1.66 778.72-0.66 777.38-0.09 776.04 0.49 774.52 0.49L774.52 0.49 772.52 0.49Q771.01 0.49 769.67-0.09 768.32-0.66 767.32-1.66 766.32-2.66 765.75-4 765.17-5.35 765.17-6.86L765.17-6.86 765.17-18.14Q765.17-19.65 765.75-21 766.32-22.34 767.32-23.34 768.32-24.34 769.67-24.91 771.01-25.49 772.52-25.49L772.52-25.49 774.52-25.49Q776.04-25.49 777.38-24.91 778.72-24.34 779.72-23.34 780.73-22.34 781.3-21 781.87-19.65 781.87-18.14L781.87-18.14 781.87-6.86ZM778.87-6.69L778.87-18.31Q778.87-19.21 778.53-20.01 778.19-20.8 777.6-21.39 777.01-21.97 776.22-22.31 775.43-22.66 774.52-22.66L774.52-22.66 772.52-22.66Q771.62-22.66 770.83-22.31 770.03-21.97 769.45-21.39 768.86-20.8 768.52-20.01 768.18-19.21 768.18-18.31L768.18-18.31 768.18-6.69Q768.18-5.79 768.52-4.99 768.86-4.2 769.45-3.61 770.03-3.03 770.83-2.69 771.62-2.34 772.52-2.34L772.52-2.34 774.52-2.34Q775.43-2.34 776.22-2.69 777.01-3.03 777.6-3.61 778.19-4.2 778.53-4.99 778.87-5.79 778.87-6.69L778.87-6.69ZM798.23-22.14L795.23-22.14Q794.32-22.14 793.53-21.8 792.73-21.46 792.15-20.87 791.56-20.29 791.22-19.49 790.88-18.7 790.88-17.8L790.88-17.8 790.88 0 787.88 0 787.88-25 788.88-25 790.51-22.46Q791.54-23.85 793.09-24.67 794.64-25.49 796.47-25.49L796.47-25.49 798.23-25.49 798.23-22.14ZM831.62-25L823.27 0 821.64 0 815.78-18.85 815.68-20.14 815.58-18.85 809.72 0 808.06 0 799.71-25 802.77-25 808.72-6.1 808.82-4.81 808.92-6.1 814.78-25 816.59-25 822.42-6.1 822.52-4.81 822.62-6.1 828.57-25 831.62-25ZM851.84 0L850.84 0 849.18-2.49Q848.15-1.15 846.61-0.33 845.07 0.49 843.24 0.49L843.24 0.49 842.49 0.49Q840.97 0.49 839.63-0.09 838.29-0.66 837.29-1.66 836.28-2.66 835.71-4 835.14-5.35 835.14-6.86L835.14-6.86 835.14-7.1Q835.14-8.62 835.71-9.96 836.28-11.3 837.29-12.3 838.29-13.31 839.63-13.88 840.97-14.45 842.49-14.45L842.49-14.45 848.83-14.45 848.83-18.31Q848.83-19.21 848.49-20.01 848.15-20.8 847.56-21.39 846.98-21.97 846.18-22.31 845.39-22.66 844.49-22.66L844.49-22.66 842.73-22.66Q841.83-22.66 841.03-22.31 840.24-21.97 839.65-21.39 839.07-20.8 838.73-20.01 838.38-19.21 838.38-18.31L838.38-18.31 838.38-17.41 835.38-17.9 835.38-18.14Q835.38-19.65 835.96-21 836.53-22.34 837.53-23.34 838.53-24.34 839.87-24.91 841.22-25.49 842.73-25.49L842.73-25.49 844.49-25.49Q846-25.49 847.34-24.91 848.69-24.34 849.69-23.34 850.69-22.34 851.26-21 851.84-19.65 851.84-18.14L851.84-18.14 851.84 0ZM848.83-6.69L848.83-12.11 842.49-12.11Q841.58-12.11 840.79-11.77 840-11.43 839.41-10.83 838.82-10.23 838.48-9.44 838.14-8.64 838.14-7.74L838.14-7.74 838.14-6.69Q838.14-5.79 838.48-4.99 838.82-4.2 839.41-3.61 840-3.03 840.79-2.69 841.58-2.34 842.49-2.34L842.49-2.34 844.49-2.34Q845.39-2.34 846.18-2.69 846.98-3.03 847.56-3.61 848.15-4.2 848.49-4.99 848.83-5.79 848.83-6.69L848.83-6.69ZM868.19-22.14L865.19-22.14Q864.29-22.14 863.49-21.8 862.7-21.46 862.11-20.87 861.53-20.29 861.18-19.49 860.84-18.7 860.84-17.8L860.84-17.8 860.84 0 857.84 0 857.84-25 858.84-25 860.48-22.46Q861.5-23.85 863.05-24.67 864.6-25.49 866.43-25.49L866.43-25.49 868.19-25.49 868.19-22.14ZM888.89 0L887.89 0 886.23-2.54Q885.21-1.15 883.67-0.33 882.13 0.49 880.3 0.49L880.3 0.49 879.54 0.49Q878.03 0.49 876.68-0.09 875.34-0.66 874.34-1.66 873.34-2.66 872.77-4 872.19-5.35 872.19-6.86L872.19-6.86 872.19-18.14Q872.19-19.65 872.77-21 873.34-22.34 874.34-23.34 875.34-24.34 876.68-24.91 878.03-25.49 879.54-25.49L879.54-25.49 880.3-25.49Q881.98-25.49 883.42-24.8 884.86-24.12 885.89-22.9L885.89-22.9 885.89-35.01 888.89-35.01 888.89 0ZM885.89-6.69L885.89-18.31Q885.89-19.21 885.55-20.01 885.21-20.8 884.62-21.39 884.03-21.97 883.24-22.31 882.45-22.66 881.54-22.66L881.54-22.66 879.54-22.66Q878.64-22.66 877.84-22.31 877.05-21.97 876.47-21.39 875.88-20.8 875.54-20.01 875.2-19.21 875.2-18.31L875.2-18.31 875.2-6.69Q875.2-5.79 875.54-4.99 875.88-4.2 876.47-3.61 877.05-3.03 877.84-2.69 878.64-2.34 879.54-2.34L879.54-2.34 881.54-2.34Q882.45-2.34 883.24-2.69 884.03-3.03 884.62-3.61 885.21-4.2 885.55-4.99 885.89-5.79 885.89-6.69L885.89-6.69ZM899.14-31.01L895.65-31.01 895.65-35.01 899.14-35.01 899.14-31.01ZM898.9 0L895.9 0 895.9-25 898.9-25 898.9 0ZM922.6 0L919.6 0 919.6-18.31Q919.6-19.21 919.26-20.01 918.92-20.8 918.33-21.39 917.74-21.97 916.95-22.31 916.16-22.66 915.25-22.66L915.25-22.66 913.25-22.66Q912.35-22.66 911.56-22.31 910.76-21.97 910.18-21.39 909.59-20.8 909.25-20.01 908.91-19.21 908.91-18.31L908.91-18.31 908.91 0 905.9 0 905.9-25 906.9-25 908.54-22.46Q909.57-23.85 911.12-24.67 912.67-25.49 914.5-25.49L914.5-25.49 915.25-25.49Q916.77-25.49 918.11-24.91 919.45-24.34 920.45-23.34 921.46-22.34 922.03-21 922.6-19.65 922.6-18.14L922.6-18.14 922.6 0ZM945.55 3.15L945.55 3.15Q945.55 4.66 944.98 5.93 944.4 7.2 943.4 8.11 942.4 9.01 941.06 9.51 939.71 10.01 938.2 10.01L938.2 10.01 936.96 10.01Q935.44 10.01 934.1 9.51 932.76 9.01 931.76 8.11 930.75 7.2 930.18 5.93 929.61 4.66 929.61 3.15L929.61 3.15 929.61 3.05Q929.61 1.59 930.14 0.37 930.68-0.85 931.61-1.76L931.61-1.76Q930.44-2.47 929.74-3.67 929.05-4.88 929.05-6.35L929.05-6.35Q929.05-7.67 929.61-8.8 930.17-9.94 931.15-10.64L931.15-10.64Q929.97-11.67 929.29-13.11 928.61-14.55 928.61-16.26L928.61-16.26 928.61-18.14Q928.61-19.65 929.18-21 929.75-22.34 930.75-23.34 931.76-24.34 933.1-24.91 934.44-25.49 935.95-25.49L935.95-25.49 937.2-25.49Q939.03-25.49 940.58-24.67 942.13-23.85 943.16-22.46L943.16-22.46 944.79-25 945.79-25 945.79-16.26Q945.79-14.75 945.22-13.4 944.65-12.06 943.65-11.06 942.64-10.06 941.3-9.48 939.96-8.91 938.45-8.91L938.45-8.91 934.1-8.91Q933.59-8.91 933.12-8.7 932.66-8.5 932.3-8.15 931.95-7.81 931.76-7.34 931.56-6.86 931.56-6.35L931.56-6.35Q931.56-5.83 931.76-5.37 931.95-4.91 932.3-4.55 932.66-4.2 933.12-4 933.59-3.81 934.1-3.81L934.1-3.81 938.2-3.81Q939.71-3.81 941.06-3.31 942.4-2.81 943.4-1.9 944.4-1 944.98 0.27 945.55 1.54 945.55 3.05L945.55 3.05 945.55 3.15ZM942.82-16.09L942.82-18.31Q942.82-19.21 942.47-20.01 942.13-20.8 941.53-21.39 940.94-21.97 940.14-22.31 939.35-22.66 938.45-22.66L938.45-22.66 935.95-22.66Q935.05-22.66 934.26-22.31 933.46-21.97 932.88-21.39 932.29-20.8 931.95-20.01 931.61-19.21 931.61-18.31L931.61-18.31 931.61-16.09Q931.61-15.19 931.95-14.39 932.29-13.6 932.88-13.01 933.46-12.43 934.26-12.08 935.05-11.74 935.95-11.74L935.95-11.74 938.45-11.74Q939.35-11.74 940.14-12.08 940.94-12.43 941.53-13.01 942.13-13.6 942.47-14.39 942.82-15.19 942.82-16.09L942.82-16.09ZM942.69 3.3L942.69 2.91Q942.69 2 942.35 1.28 942.01 0.56 941.42 0.07 940.84-0.42 940.04-0.68 939.25-0.95 938.35-0.95L938.35-0.95 936.81-0.95Q935.91-0.95 935.11-0.68 934.32-0.42 933.73 0.07 933.15 0.56 932.81 1.28 932.46 2 932.46 2.91L932.46 2.91 932.46 3.3Q932.46 4.2 932.81 4.91 933.15 5.62 933.73 6.12 934.32 6.62 935.11 6.88 935.91 7.15 936.81 7.15L936.81 7.15 938.35 7.15Q939.25 7.15 940.04 6.88 940.84 6.62 941.42 6.12 942.01 5.62 942.35 4.91 942.69 4.2 942.69 3.3L942.69 3.3Z" fill="#0ea18c" data-fill-palette-color="accent"></path></g></svg></g></svg></g></svg></g></svg></g><g></g></svg></g></svg></g><defs></defs></svg><rect width="338.64870619237786" height="109.23141934173967" fill="none" stroke="none" visibility="hidden"></rect></g></svg></g></svg>